<?xml version="1.0" encoding="UTF-8" standalone="no"?>
<!DOCTYPE svg PUBLIC "-//W3C//DTD SVG 1.1//EN"
 "http://www.w3.org/Graphics/SVG/1.1/DTD/svg11.dtd">
<!-- Generated by graphviz version 12.2.1 (20241206.2353)
 -->
<!-- Title: DedupePipeline Pages: 1 -->
<svg width="3180pt" height="859pt"
 viewBox="0.00 0.00 3179.89 859.15" xmlns="http://www.w3.org/2000/svg" xmlns:xlink="http://www.w3.org/1999/xlink">
<g id="graph0" class="graph" transform="scale(1 1) rotate(0) translate(25.2 833.95)">
<title>DedupePipeline</title>
<polygon fill="white" stroke="none" points="-25.2,25.2 -25.2,-833.95 3154.69,-833.95 3154.69,25.2 -25.2,25.2"/>
<text text-anchor="start" x="1377.62" y="-782.95" font-family="Helvetica,sans-Serif" font-weight="bold" font-size="24.00">Cartsy Runtime Dedupe Pipeline</text>
<!-- input -->
<g id="node1" class="node">
<title>input</title>
<path fill="#eaf2ff" stroke="#2f3a45" stroke-width="1.4" d="M113.53,-50.2C113.53,-50.2 15.37,-50.2 15.37,-50.2 9.37,-50.2 3.37,-44.2 3.37,-38.2 3.37,-38.2 3.37,-23.8 3.37,-23.8 3.37,-17.8 9.37,-11.8 15.37,-11.8 15.37,-11.8 113.53,-11.8 113.53,-11.8 119.53,-11.8 125.53,-17.8 125.53,-23.8 125.53,-23.8 125.53,-38.2 125.53,-38.2 125.53,-44.2 119.53,-50.2 113.53,-50.2"/>
<text text-anchor="start" x="13.45" y="-32.6" font-family="Helvetica,sans-Serif" font-weight="bold" font-size="12.00">Raw Product CSV</text>
<text text-anchor="start" x="16.45" y="-20.6" font-family="Helvetica,sans-Serif" font-size="12.00">cartsy&#45;dedupe run</text>
</g>
<!-- normalize -->
<g id="node2" class="node">
<title>normalize</title>
<path fill="#eef7ed" stroke="#2f3a45" stroke-width="1.4" d="M349.19,-351.2C349.19,-351.2 212.03,-351.2 212.03,-351.2 206.03,-351.2 200.03,-345.2 200.03,-339.2 200.03,-339.2 200.03,-288.8 200.03,-288.8 200.03,-282.8 206.03,-276.8 212.03,-276.8 212.03,-276.8 349.19,-276.8 349.19,-276.8 355.19,-276.8 361.19,-282.8 361.19,-288.8 361.19,-288.8 361.19,-339.2 361.19,-339.2 361.19,-345.2 355.19,-351.2 349.19,-351.2"/>
<text text-anchor="start" x="221.74" y="-333.6" font-family="Helvetica,sans-Serif" font-weight="bold" font-size="12.00">1. Ingest + Normalize</text>
<text text-anchor="start" x="232.24" y="-321.6" font-family="Helvetica,sans-Serif" font-size="12.00">canonical schema</text>
<text text-anchor="start" x="212.74" y="-309.6" font-family="Helvetica,sans-Serif" font-size="12.00">brand/title/category/specs</text>
<text text-anchor="start" x="211.24" y="-297.6" font-family="Helvetica,sans-Serif" font-size="12.00">IDs, URL keys, size, pack,</text>
<text text-anchor="start" x="210.11" y="-285.6" font-family="Helvetica,sans-Serif" font-size="12.00">model tokens, quality flags</text>
</g>
<!-- input&#45;&gt;normalize -->
<g id="edge1" class="edge">
<title>input&#45;&gt;normalize</title>
<path fill="none" stroke="#4c566a" stroke-width="1.2" d="M72.76,-50.62C88.41,-90.75 128.31,-183.66 183.91,-246 191.72,-254.76 200.87,-263.02 210.35,-270.57"/>
<polygon fill="#4c566a" stroke="#4c566a" stroke-width="1.2" points="208.51,-272.69 216.56,-275.35 211.93,-268.25 208.51,-272.69"/>
</g>
<!-- postgres -->
<g id="node3" class="node">
<title>postgres</title>
<path fill="#f3efff" stroke="#2f3a45" stroke-width="1.4" d="M582.98,-351.2C582.98,-351.2 444.32,-351.2 444.32,-351.2 438.32,-351.2 432.32,-345.2 432.32,-339.2 432.32,-339.2 432.32,-288.8 432.32,-288.8 432.32,-282.8 438.32,-276.8 444.32,-276.8 444.32,-276.8 582.98,-276.8 582.98,-276.8 588.98,-276.8 594.98,-282.8 594.98,-288.8 594.98,-288.8 594.98,-339.2 594.98,-339.2 594.98,-345.2 588.98,-351.2 582.98,-351.2"/>
<text text-anchor="start" x="442.4" y="-333.6" font-family="Helvetica,sans-Serif" font-weight="bold" font-size="12.00">Postgres Working Tables</text>
<text text-anchor="start" x="459.65" y="-321.6" font-family="Helvetica,sans-Serif" font-size="12.00">normalized products</text>
<text text-anchor="start" x="485.52" y="-309.6" font-family="Helvetica,sans-Serif" font-size="12.00">exact keys</text>
<text text-anchor="start" x="449.9" y="-297.6" font-family="Helvetica,sans-Serif" font-size="12.00">retrieval helper columns</text>
<text text-anchor="start" x="463.02" y="-285.6" font-family="Helvetica,sans-Serif" font-size="12.00">embedding vectors</text>
</g>
<!-- normalize&#45;&gt;postgres -->
<g id="edge2" class="edge">
<title>normalize&#45;&gt;postgres</title>
<path fill="none" stroke="#4c566a" stroke-width="1.2" d="M361.45,-314C381.06,-314 402.2,-314 422.27,-314"/>
<polygon fill="#4c566a" stroke="#4c566a" stroke-width="1.2" points="422.21,-316.8 430.21,-314 422.21,-311.2 422.21,-316.8"/>
</g>
<!-- exact -->
<g id="node4" class="node">
<title>exact</title>
<path fill="#fff4df" stroke="#2f3a45" stroke-width="1.4" d="M803.26,-560.2C803.26,-560.2 682.6,-560.2 682.6,-560.2 676.6,-560.2 670.6,-554.2 670.6,-548.2 670.6,-548.2 670.6,-497.8 670.6,-497.8 670.6,-491.8 676.6,-485.8 682.6,-485.8 682.6,-485.8 803.26,-485.8 803.26,-485.8 809.26,-485.8 815.26,-491.8 815.26,-497.8 815.26,-497.8 815.26,-548.2 815.26,-548.2 815.26,-554.2 809.26,-560.2 803.26,-560.2"/>
<text text-anchor="start" x="690.43" y="-542.6" font-family="Helvetica,sans-Serif" font-weight="bold" font-size="12.00">2a. Exact Retrieval</text>
<text text-anchor="start" x="699.81" y="-530.6" font-family="Helvetica,sans-Serif" font-size="12.00">EAN/GTIN/UPC</text>
<text text-anchor="start" x="728.68" y="-518.6" font-family="Helvetica,sans-Serif" font-size="12.00">ASIN</text>
<text text-anchor="start" x="693.81" y="-506.6" font-family="Helvetica,sans-Serif" font-size="12.00">same&#45;retailer SKU</text>
<text text-anchor="start" x="680.68" y="-494.6" font-family="Helvetica,sans-Serif" font-size="12.00">trusted canonical URLs</text>
</g>
<!-- postgres&#45;&gt;exact -->
<g id="edge3" class="edge">
<title>postgres&#45;&gt;exact</title>
<path fill="none" stroke="#4c566a" stroke-width="1.2" d="M542.17,-351.48C567.71,-384.63 608,-433.04 649.98,-468 654.88,-472.08 660.11,-476.05 665.5,-479.87"/>
<polygon fill="#4c566a" stroke="#4c566a" stroke-width="1.2" points="663.82,-482.11 672,-484.33 666.99,-477.5 663.82,-482.11"/>
</g>
<!-- lexical -->
<g id="node5" class="node">
<title>lexical</title>
<path fill="#fff4df" stroke="#2f3a45" stroke-width="1.4" d="M817.89,-266.2C817.89,-266.2 667.98,-266.2 667.98,-266.2 661.98,-266.2 655.98,-260.2 655.98,-254.2 655.98,-254.2 655.98,-227.8 655.98,-227.8 655.98,-221.8 661.98,-215.8 667.98,-215.8 667.98,-215.8 817.89,-215.8 817.89,-215.8 823.89,-215.8 829.89,-221.8 829.89,-227.8 829.89,-227.8 829.89,-254.2 829.89,-254.2 829.89,-260.2 823.89,-266.2 817.89,-266.2"/>
<text text-anchor="start" x="685.93" y="-248.6" font-family="Helvetica,sans-Serif" font-weight="bold" font-size="12.00">2b. Lexical Retrieval</text>
<text text-anchor="start" x="670.93" y="-236.6" font-family="Helvetica,sans-Serif" font-size="12.00">brand&#45;aware Postgres FTS</text>
<text text-anchor="start" x="666.06" y="-224.6" font-family="Helvetica,sans-Serif" font-size="12.00">weighted title/category/specs</text>
</g>
<!-- postgres&#45;&gt;lexical -->
<g id="edge4" class="edge">
<title>postgres&#45;&gt;lexical</title>
<path fill="none" stroke="#4c566a" stroke-width="1.2" d="M595.42,-288.06C614.06,-282.07 633.99,-275.67 652.96,-269.58"/>
<polygon fill="#4c566a" stroke="#4c566a" stroke-width="1.2" points="653.7,-272.28 660.46,-267.17 651.99,-266.95 653.7,-272.28"/>
</g>
<!-- trigram -->
<g id="node6" class="node">
<title>trigram</title>
<path fill="#fff4df" stroke="#2f3a45" stroke-width="1.4" d="M823.89,-450.2C823.89,-450.2 661.98,-450.2 661.98,-450.2 655.98,-450.2 649.98,-444.2 649.98,-438.2 649.98,-438.2 649.98,-411.8 649.98,-411.8 649.98,-405.8 655.98,-399.8 661.98,-399.8 661.98,-399.8 823.89,-399.8 823.89,-399.8 829.89,-399.8 835.89,-405.8 835.89,-411.8 835.89,-411.8 835.89,-438.2 835.89,-438.2 835.89,-444.2 829.89,-450.2 823.89,-450.2"/>
<text text-anchor="start" x="684.81" y="-432.6" font-family="Helvetica,sans-Serif" font-weight="bold" font-size="12.00">2c. Trigram Retrieval</text>
<text text-anchor="start" x="685.18" y="-420.6" font-family="Helvetica,sans-Serif" font-size="12.00">pg_trgm title similarity</text>
<text text-anchor="start" x="660.06" y="-408.6" font-family="Helvetica,sans-Serif" font-size="12.00">inside normalized brand blocks</text>
</g>
<!-- postgres&#45;&gt;trigram -->
<g id="edge5" class="edge">
<title>postgres&#45;&gt;trigram</title>
<path fill="none" stroke="#4c566a" stroke-width="1.2" d="M588.56,-351.61C608.45,-361.6 629.99,-372.31 649.98,-382 658.87,-386.31 668.28,-390.8 677.55,-395.18"/>
<polygon fill="#4c566a" stroke="#4c566a" stroke-width="1.2" points="676.31,-397.68 684.74,-398.56 678.69,-392.62 676.31,-397.68"/>
</g>
<!-- vector -->
<g id="node7" class="node">
<title>vector</title>
<path fill="#fff4df" stroke="#2f3a45" stroke-width="1.4" d="M816.01,-364.2C816.01,-364.2 669.85,-364.2 669.85,-364.2 663.85,-364.2 657.85,-358.2 657.85,-352.2 657.85,-352.2 657.85,-313.8 657.85,-313.8 657.85,-307.8 663.85,-301.8 669.85,-301.8 669.85,-301.8 816.01,-301.8 816.01,-301.8 822.01,-301.8 828.01,-307.8 828.01,-313.8 828.01,-313.8 828.01,-352.2 828.01,-352.2 828.01,-358.2 822.01,-364.2 816.01,-364.2"/>
<text text-anchor="start" x="667.93" y="-346.6" font-family="Helvetica,sans-Serif" font-weight="bold" font-size="12.00">2d. Evidence&#45;Gated Vector</text>
<text text-anchor="start" x="681.43" y="-334.6" font-family="Helvetica,sans-Serif" font-size="12.00">pgvector cosine search</text>
<text text-anchor="start" x="669.43" y="-322.6" font-family="Helvetica,sans-Serif" font-size="12.00">only rows with cheap signal</text>
<text text-anchor="start" x="693.81" y="-310.6" font-family="Helvetica,sans-Serif" font-size="12.00">enter vector fanout</text>
</g>
<!-- postgres&#45;&gt;vector -->
<g id="edge6" class="edge">
<title>postgres&#45;&gt;vector</title>
<path fill="none" stroke="#4c566a" stroke-width="1.2" d="M595.42,-320.75C612.43,-322.17 630.52,-323.69 647.96,-325.14"/>
<polygon fill="#4c566a" stroke="#4c566a" stroke-width="1.2" points="647.56,-327.92 655.77,-325.8 648.03,-322.34 647.56,-327.92"/>
</g>
<!-- pair_blocks -->
<g id="node8" class="node">
<title>pair_blocks</title>
<path fill="#fff9e8" stroke="#2f3a45" stroke-width="1.4" d="M1039.3,-450.2C1039.3,-450.2 902.89,-450.2 902.89,-450.2 896.89,-450.2 890.89,-444.2 890.89,-438.2 890.89,-438.2 890.89,-411.8 890.89,-411.8 890.89,-405.8 896.89,-399.8 902.89,-399.8 902.89,-399.8 1039.3,-399.8 1039.3,-399.8 1045.3,-399.8 1051.3,-405.8 1051.3,-411.8 1051.3,-411.8 1051.3,-438.2 1051.3,-438.2 1051.3,-444.2 1045.3,-450.2 1039.3,-450.2"/>
<text text-anchor="start" x="900.97" y="-432.6" font-family="Helvetica,sans-Serif" font-weight="bold" font-size="12.00">Candidate Pair Evidence</text>
<text text-anchor="start" x="923.84" y="-420.6" font-family="Helvetica,sans-Serif" font-size="12.00">exact:* | lexical:fts</text>
<text text-anchor="start" x="902.09" y="-408.6" font-family="Helvetica,sans-Serif" font-size="12.00">trigram:title | vector:cosine</text>
</g>
<!-- exact&#45;&gt;pair_blocks -->
<g id="edge7" class="edge">
<title>exact&#45;&gt;pair_blocks</title>
<path fill="none" stroke="#4c566a" stroke-width="1.2" d="M815.49,-491.99C843.29,-479.95 874.96,-466.22 902.38,-454.34"/>
<polygon fill="#4c566a" stroke="#4c566a" stroke-width="1.2" points="903.22,-457.03 909.45,-451.28 901,-451.89 903.22,-457.03"/>
</g>
<!-- lexical&#45;&gt;pair_blocks -->
<g id="edge8" class="edge">
<title>lexical&#45;&gt;pair_blocks</title>
<path fill="none" stroke="#4c566a" stroke-width="1.2" d="M807.04,-266.66C817.05,-271.81 827.02,-277.62 835.89,-284 878.88,-314.93 919.53,-360.84 944.59,-391.79"/>
<polygon fill="#4c566a" stroke="#4c566a" stroke-width="1.2" points="942.3,-393.4 949.49,-397.9 946.67,-389.9 942.3,-393.4"/>
</g>
<!-- trigram&#45;&gt;pair_blocks -->
<g id="edge9" class="edge">
<title>trigram&#45;&gt;pair_blocks</title>
<path fill="none" stroke="#4c566a" stroke-width="1.2" d="M836.25,-425C851.08,-425 866.4,-425 881.15,-425"/>
<polygon fill="#4c566a" stroke="#4c566a" stroke-width="1.2" points="880.93,-427.8 888.93,-425 880.93,-422.2 880.93,-427.8"/>
</g>
<!-- vector&#45;&gt;pair_blocks -->
<g id="edge10" class="edge">
<title>vector&#45;&gt;pair_blocks</title>
<path fill="none" stroke="#4c566a" stroke-width="1.2" d="M821.77,-364.66C846.57,-374.75 873.9,-385.87 898.26,-395.78"/>
<polygon fill="#4c566a" stroke="#4c566a" stroke-width="1.2" points="896.94,-398.27 905.41,-398.69 899.05,-393.08 896.94,-398.27"/>
</g>
<!-- semantic -->
<g id="node9" class="node">
<title>semantic</title>
<path fill="#fceff5" stroke="#2f3a45" stroke-width="1.4" d="M1360.96,-534.2C1360.96,-534.2 1199.8,-534.2 1199.8,-534.2 1193.8,-534.2 1187.8,-528.2 1187.8,-522.2 1187.8,-522.2 1187.8,-483.8 1187.8,-483.8 1187.8,-477.8 1193.8,-471.8 1199.8,-471.8 1199.8,-471.8 1360.96,-471.8 1360.96,-471.8 1366.96,-471.8 1372.96,-477.8 1372.96,-483.8 1372.96,-483.8 1372.96,-522.2 1372.96,-522.2 1372.96,-528.2 1366.96,-534.2 1360.96,-534.2"/>
<text text-anchor="start" x="1199.75" y="-516.6" font-family="Helvetica,sans-Serif" font-weight="bold" font-size="12.00">3. Dense Semantic Similarity</text>
<text text-anchor="start" x="1197.88" y="-504.6" font-family="Helvetica,sans-Serif" font-size="12.00">embed candidate&#45;pair products</text>
<text text-anchor="start" x="1214.38" y="-492.6" font-family="Helvetica,sans-Serif" font-size="12.00">compute pairwise cosine</text>
<text text-anchor="start" x="1243.63" y="-480.6" font-family="Helvetica,sans-Serif" font-size="12.00">semantic_sim</text>
</g>
<!-- pair_blocks&#45;&gt;semantic -->
<g id="edge11" class="edge">
<title>pair_blocks&#45;&gt;semantic</title>
<path fill="none" stroke="#4c566a" stroke-width="1.2" d="M1051.52,-446.07C1060.54,-448.43 1069.62,-450.78 1078.3,-453 1110.73,-461.31 1146.16,-470.18 1178.11,-478.11"/>
<polygon fill="#4c566a" stroke="#4c566a" stroke-width="1.2" points="1177.27,-480.79 1185.71,-480 1178.61,-475.35 1177.27,-480.79"/>
<text text-anchor="middle" x="1119.55" y="-474.26" font-family="Helvetica,sans-Serif" font-size="10.00">candidate products</text>
</g>
<!-- features -->
<g id="node10" class="node">
<title>features</title>
<path fill="#edf7f7" stroke="#2f3a45" stroke-width="1.4" d="M1679.62,-500.2C1679.62,-500.2 1499.71,-500.2 1499.71,-500.2 1493.71,-500.2 1487.71,-494.2 1487.71,-488.2 1487.71,-488.2 1487.71,-437.8 1487.71,-437.8 1487.71,-431.8 1493.71,-425.8 1499.71,-425.8 1499.71,-425.8 1679.62,-425.8 1679.62,-425.8 1685.62,-425.8 1691.62,-431.8 1691.62,-437.8 1691.62,-437.8 1691.62,-488.2 1691.62,-488.2 1691.62,-494.2 1685.62,-500.2 1679.62,-500.2"/>
<text text-anchor="start" x="1509.79" y="-482.6" font-family="Helvetica,sans-Serif" font-weight="bold" font-size="12.00">4. Pairwise Feature Contract</text>
<text text-anchor="start" x="1497.79" y="-470.6" font-family="Helvetica,sans-Serif" font-size="12.00">DEFAULT_FEATURE_COLUMNS</text>
<text text-anchor="start" x="1518.04" y="-458.6" font-family="Helvetica,sans-Serif" font-size="12.00">identifier, lexical, semantic,</text>
<text text-anchor="start" x="1527.41" y="-446.6" font-family="Helvetica,sans-Serif" font-size="12.00">size/pack/price, variant,</text>
<text text-anchor="start" x="1514.29" y="-434.6" font-family="Helvetica,sans-Serif" font-size="12.00">kit/form contradiction signals</text>
</g>
<!-- pair_blocks&#45;&gt;features -->
<g id="edge12" class="edge">
<title>pair_blocks&#45;&gt;features</title>
<path fill="none" stroke="#4c566a" stroke-width="1.2" d="M1051.64,-427.37C1132.57,-430.04 1261.59,-435.06 1372.96,-442.75 1407.09,-445.11 1444.19,-448.34 1477.85,-451.54"/>
<polygon fill="#4c566a" stroke="#4c566a" stroke-width="1.2" points="1477.21,-454.29 1485.44,-452.27 1477.74,-448.72 1477.21,-454.29"/>
<text text-anchor="middle" x="1280.38" y="-444.5" font-family="Helvetica,sans-Serif" font-size="10.00">retrieval evidence</text>
</g>
<!-- semantic&#45;&gt;features -->
<g id="edge13" class="edge">
<title>semantic&#45;&gt;features</title>
<path fill="none" stroke="#4c566a" stroke-width="1.2" d="M1373.16,-491.05C1406.06,-486.77 1443.49,-481.9 1477.83,-477.43"/>
<polygon fill="#4c566a" stroke="#4c566a" stroke-width="1.2" points="1478.06,-480.22 1485.63,-476.41 1477.33,-474.67 1478.06,-480.22"/>
<text text-anchor="middle" x="1430.33" y="-488.33" font-family="Helvetica,sans-Serif" font-size="10.00">semantic_sim</text>
</g>
<!-- rules -->
<g id="node11" class="node">
<title>rules</title>
<path fill="#fff0ec" stroke="#2f3a45" stroke-width="1.4" d="M1877.78,-622.2C1877.78,-622.2 1781.12,-622.2 1781.12,-622.2 1775.12,-622.2 1769.12,-616.2 1769.12,-610.2 1769.12,-610.2 1769.12,-547.8 1769.12,-547.8 1769.12,-541.8 1775.12,-535.8 1781.12,-535.8 1781.12,-535.8 1877.78,-535.8 1877.78,-535.8 1883.78,-535.8 1889.78,-541.8 1889.78,-547.8 1889.78,-547.8 1889.78,-610.2 1889.78,-610.2 1889.78,-616.2 1883.78,-622.2 1877.78,-622.2"/>
<text text-anchor="start" x="1791.57" y="-604.6" font-family="Helvetica,sans-Serif" font-weight="bold" font-size="12.00">5. Rule Chain</text>
<text text-anchor="start" x="1779.57" y="-592.6" font-family="Helvetica,sans-Serif" font-size="12.00">CERTAIN_BLOCK</text>
<text text-anchor="start" x="1779.2" y="-580.6" font-family="Helvetica,sans-Serif" font-size="12.00">CERTAIN_MATCH</text>
<text text-anchor="start" x="1779.2" y="-568.6" font-family="Helvetica,sans-Serif" font-size="12.00">STRONG_MATCH</text>
<text text-anchor="start" x="1785.2" y="-556.6" font-family="Helvetica,sans-Serif" font-size="12.00">LIKELY_MATCH</text>
<text text-anchor="start" x="1794.57" y="-544.6" font-family="Helvetica,sans-Serif" font-size="12.00">UNCERTAIN</text>
</g>
<!-- features&#45;&gt;rules -->
<g id="edge14" class="edge">
<title>features&#45;&gt;rules</title>
<path fill="none" stroke="#4c566a" stroke-width="1.2" d="M1667.87,-500.66C1697.61,-515.17 1731.33,-531.62 1760.17,-545.69"/>
<polygon fill="#4c566a" stroke="#4c566a" stroke-width="1.2" points="1758.91,-548.19 1767.32,-549.18 1761.36,-543.16 1758.91,-548.19"/>
</g>
<!-- ml -->
<g id="node12" class="node">
<title>ml</title>
<polygon fill="#e8f7ff" stroke="#2f3a45" stroke-width="1.4" points="1911.9,-390.2 1746.99,-390.2 1746.99,-386.2 1742.99,-386.2 1742.99,-382.2 1746.99,-382.2 1746.99,-335.8 1742.99,-335.8 1742.99,-331.8 1746.99,-331.8 1746.99,-327.8 1911.9,-327.8 1911.9,-390.2"/>
<polyline fill="none" stroke="#2f3a45" stroke-width="1.4" points="1746.99,-386.2 1750.99,-386.2 1750.99,-382.2 1746.99,-382.2"/>
<polyline fill="none" stroke="#2f3a45" stroke-width="1.4" points="1746.99,-335.8 1750.99,-335.8 1750.99,-331.8 1746.99,-331.8"/>
<text text-anchor="start" x="1757.07" y="-372.6" font-family="Helvetica,sans-Serif" font-weight="bold" font-size="12.00">Calibrated Logistic Model</text>
<text text-anchor="start" x="1761.95" y="-360.6" font-family="Helvetica,sans-Serif" font-size="12.00">models/final_submission/</text>
<text text-anchor="start" x="1777.32" y="-348.6" font-family="Helvetica,sans-Serif" font-size="12.00">cartsy_logreg.joblib</text>
<text text-anchor="start" x="1773.95" y="-336.6" font-family="Helvetica,sans-Serif" font-size="12.00">ml_score + threshold</text>
</g>
<!-- features&#45;&gt;ml -->
<g id="edge15" class="edge">
<title>features&#45;&gt;ml</title>
<path fill="none" stroke="#4c566a" stroke-width="1.2" d="M1676.85,-425.31C1699.84,-415.25 1724.61,-404.42 1747.33,-394.48"/>
<polygon fill="#4c566a" stroke="#4c566a" stroke-width="1.2" points="1748.39,-397.07 1754.59,-391.3 1746.14,-391.94 1748.39,-397.07"/>
</g>
<!-- evidence -->
<g id="node13" class="node">
<title>evidence</title>
<path fill="#edf7f7" stroke="#2f3a45" stroke-width="1.4" d="M1900.28,-500.2C1900.28,-500.2 1758.62,-500.2 1758.62,-500.2 1752.62,-500.2 1746.62,-494.2 1746.62,-488.2 1746.62,-488.2 1746.62,-437.8 1746.62,-437.8 1746.62,-431.8 1752.62,-425.8 1758.62,-425.8 1758.62,-425.8 1900.28,-425.8 1900.28,-425.8 1906.28,-425.8 1912.28,-431.8 1912.28,-437.8 1912.28,-437.8 1912.28,-488.2 1912.28,-488.2 1912.28,-494.2 1906.28,-500.2 1900.28,-500.2"/>
<text text-anchor="start" x="1784.45" y="-482.6" font-family="Helvetica,sans-Serif" font-weight="bold" font-size="12.00">Evidence Score</text>
<text text-anchor="start" x="1767.95" y="-470.6" font-family="Helvetica,sans-Serif" font-size="12.00">multi&#45;signal confidence</text>
<text text-anchor="start" x="1766.82" y="-458.6" font-family="Helvetica,sans-Serif" font-size="12.00">exact + lexical + trigram</text>
<text text-anchor="start" x="1766.07" y="-446.6" font-family="Helvetica,sans-Serif" font-size="12.00">semantic + rule features</text>
<text text-anchor="start" x="1756.7" y="-434.6" font-family="Helvetica,sans-Serif" font-size="12.00">penalized by contradictions</text>
</g>
<!-- features&#45;&gt;evidence -->
<g id="edge16" class="edge">
<title>features&#45;&gt;evidence</title>
<path fill="none" stroke="#4c566a" stroke-width="1.2" d="M1691.85,-463C1706.78,-463 1722.1,-463 1736.82,-463"/>
<polygon fill="#4c566a" stroke="#4c566a" stroke-width="1.2" points="1736.58,-465.8 1744.58,-463 1736.58,-460.2 1736.58,-465.8"/>
</g>
<!-- decision -->
<g id="node14" class="node">
<title>decision</title>
<path fill="#ffe8cc" stroke="#2f3a45" stroke-width="1.4" d="M2127.88,-574.87C2127.88,-574.87 1978.55,-520.13 1978.55,-520.13 1972.91,-518.07 1972.91,-513.93 1978.55,-511.87 1978.55,-511.87 2127.88,-457.13 2127.88,-457.13 2133.51,-455.07 2144.78,-455.07 2150.41,-457.13 2150.41,-457.13 2299.74,-511.87 2299.74,-511.87 2305.37,-513.93 2305.37,-518.07 2299.74,-520.13 2299.74,-520.13 2150.41,-574.87 2150.41,-574.87 2144.78,-576.93 2133.51,-576.93 2127.88,-574.87"/>
<text text-anchor="start" x="2102.39" y="-541.6" font-family="Helvetica,sans-Serif" font-weight="bold" font-size="12.00">Merge Policy</text>
<text text-anchor="start" x="2074.27" y="-529.6" font-family="Helvetica,sans-Serif" font-size="12.00">hard blocks stop merges</text>
<text text-anchor="start" x="2065.27" y="-517.6" font-family="Helvetica,sans-Serif" font-size="12.00">certain exacts may fast&#45;path</text>
<text text-anchor="start" x="2091.52" y="-505.6" font-family="Helvetica,sans-Serif" font-size="12.00">otherwise require:</text>
<text text-anchor="start" x="2080.27" y="-493.6" font-family="Helvetica,sans-Serif" font-size="12.00">ml_score &gt;= threshold</text>
<text text-anchor="start" x="2060.77" y="-481.6" font-family="Helvetica,sans-Serif" font-size="12.00">AND evidence_score &gt;= floor</text>
</g>
<!-- rules&#45;&gt;decision -->
<g id="edge17" class="edge">
<title>rules&#45;&gt;decision</title>
<path fill="none" stroke="#4c566a" stroke-width="1.2" d="M1890.14,-566.78C1926.53,-559.33 1974.34,-549.54 2018.26,-540.55"/>
<polygon fill="#4c566a" stroke="#4c566a" stroke-width="1.2" points="2018.81,-543.29 2026.08,-538.94 2017.68,-537.81 2018.81,-543.29"/>
</g>
<!-- ml&#45;&gt;decision -->
<g id="edge18" class="edge">
<title>ml&#45;&gt;decision</title>
<path fill="none" stroke="#4c566a" stroke-width="1.2" d="M1892.35,-390.58C1939.97,-414.88 2006.17,-448.66 2057.87,-475.04"/>
<polygon fill="#4c566a" stroke="#4c566a" stroke-width="1.2" points="2056.35,-477.41 2064.74,-478.55 2058.89,-472.42 2056.35,-477.41"/>
</g>
<!-- evidence&#45;&gt;decision -->
<g id="edge19" class="edge">
<title>evidence&#45;&gt;decision</title>
<path fill="none" stroke="#4c566a" stroke-width="1.2" d="M1912.5,-477.13C1942.93,-482.37 1978.19,-488.45 2011.67,-494.21"/>
<polygon fill="#4c566a" stroke="#4c566a" stroke-width="1.2" points="2010.91,-496.92 2019.27,-495.52 2011.86,-491.41 2010.91,-496.92"/>
</g>
<!-- clustering -->
<g id="node15" class="node">
<title>clustering</title>
<path fill="#edf1ff" stroke="#2f3a45" stroke-width="1.4" d="M2647.67,-667.2C2647.67,-667.2 2476.01,-667.2 2476.01,-667.2 2470.01,-667.2 2464.01,-661.2 2464.01,-655.2 2464.01,-655.2 2464.01,-616.8 2464.01,-616.8 2464.01,-610.8 2470.01,-604.8 2476.01,-604.8 2476.01,-604.8 2647.67,-604.8 2647.67,-604.8 2653.67,-604.8 2659.67,-610.8 2659.67,-616.8 2659.67,-616.8 2659.67,-655.2 2659.67,-655.2 2659.67,-661.2 2653.67,-667.2 2647.67,-667.2"/>
<text text-anchor="start" x="2486.46" y="-649.6" font-family="Helvetica,sans-Serif" font-weight="bold" font-size="12.00">6. Cluster Accepted Edges</text>
<text text-anchor="start" x="2483.46" y="-637.6" font-family="Helvetica,sans-Serif" font-size="12.00">union connected components</text>
<text text-anchor="start" x="2474.09" y="-625.6" font-family="Helvetica,sans-Serif" font-size="12.00">cluster&#45;level contradiction guards</text>
<text text-anchor="start" x="2498.09" y="-613.6" font-family="Helvetica,sans-Serif" font-size="12.00">stable SHA1 dedupe_id</text>
</g>
<!-- decision&#45;&gt;clustering -->
<g id="edge20" class="edge">
<title>decision&#45;&gt;clustering</title>
<path fill="none" stroke="#4c566a" stroke-width="1.2" d="M2236.92,-543.61C2301.92,-562.15 2387.58,-586.58 2454.49,-605.66"/>
<polygon fill="#4c566a" stroke="#4c566a" stroke-width="1.2" points="2453.59,-608.32 2462.05,-607.82 2455.13,-602.94 2453.59,-608.32"/>
<text text-anchor="middle" x="2387.51" y="-602.29" font-family="Helvetica,sans-Serif" font-size="10.00">accepted merge edges</text>
</g>
<!-- artifacts -->
<g id="node16" class="node">
<title>artifacts</title>
<path fill="#f7f7f7" stroke="#2f3a45" stroke-width="1.4" d="M2878.08,-685.2C2878.08,-685.2 2726.67,-685.2 2726.67,-685.2 2720.67,-685.2 2714.67,-679.2 2714.67,-673.2 2714.67,-673.2 2714.67,-598.8 2714.67,-598.8 2714.67,-592.8 2720.67,-586.8 2726.67,-586.8 2726.67,-586.8 2878.08,-586.8 2878.08,-586.8 2884.08,-586.8 2890.08,-592.8 2890.08,-598.8 2890.08,-598.8 2890.08,-673.2 2890.08,-673.2 2890.08,-679.2 2884.08,-685.2 2878.08,-685.2"/>
<text text-anchor="start" x="2765.25" y="-667.6" font-family="Helvetica,sans-Serif" font-weight="bold" font-size="12.00">Run Artifacts</text>
<text text-anchor="start" x="2724.75" y="-655.6" font-family="Helvetica,sans-Serif" font-size="12.00">normalized_products.parquet</text>
<text text-anchor="start" x="2737.87" y="-643.6" font-family="Helvetica,sans-Serif" font-size="12.00">candidate_pairs.parquet</text>
<text text-anchor="start" x="2734.87" y="-631.6" font-family="Helvetica,sans-Serif" font-size="12.00">product_assignments.csv</text>
<text text-anchor="start" x="2746.12" y="-619.6" font-family="Helvetica,sans-Serif" font-size="12.00">dedupe_groups.jsonl</text>
<text text-anchor="start" x="2747.62" y="-607.6" font-family="Helvetica,sans-Serif" font-size="12.00">near_miss_pairs.csv</text>
<text text-anchor="start" x="2746.5" y="-595.6" font-family="Helvetica,sans-Serif" font-size="12.00">summary_report.json</text>
</g>
<!-- clustering&#45;&gt;artifacts -->
<g id="edge21" class="edge">
<title>clustering&#45;&gt;artifacts</title>
<path fill="none" stroke="#4c566a" stroke-width="1.2" d="M2659.86,-636C2674.67,-636 2689.96,-636 2704.76,-636"/>
<polygon fill="#4c566a" stroke="#4c566a" stroke-width="1.2" points="2704.6,-638.8 2712.6,-636 2704.6,-633.2 2704.6,-638.8"/>
</g>
<!-- query -->
<g id="node17" class="node">
<title>query</title>
<path fill="#f2f2f2" stroke="#2f3a45" stroke-width="1.4" d="M3117.49,-716.2C3117.49,-716.2 2957.08,-716.2 2957.08,-716.2 2951.08,-716.2 2945.08,-710.2 2945.08,-704.2 2945.08,-704.2 2945.08,-665.8 2945.08,-665.8 2945.08,-659.8 2951.08,-653.8 2957.08,-653.8 2957.08,-653.8 3117.49,-653.8 3117.49,-653.8 3123.49,-653.8 3129.49,-659.8 3129.49,-665.8 3129.49,-665.8 3129.49,-704.2 3129.49,-704.2 3129.49,-710.2 3123.49,-716.2 3117.49,-716.2"/>
<text text-anchor="start" x="2993.03" y="-698.6" font-family="Helvetica,sans-Serif" font-weight="bold" font-size="12.00">Query Surfaces</text>
<text text-anchor="start" x="2975.41" y="-686.6" font-family="Helvetica,sans-Serif" font-size="12.00">search / group / explain</text>
<text text-anchor="start" x="2955.16" y="-674.6" font-family="Helvetica,sans-Serif" font-size="12.00">index&#45;artifacts / search&#45;artifacts</text>
<text text-anchor="start" x="2975.03" y="-662.6" font-family="Helvetica,sans-Serif" font-size="12.00">optional FastAPI server</text>
</g>
<!-- artifacts&#45;&gt;query -->
<g id="edge22" class="edge">
<title>artifacts&#45;&gt;query</title>
<path fill="none" stroke="#4c566a" stroke-width="1.2" d="M2890.43,-654.32C2905.09,-657.4 2920.41,-660.62 2935.39,-663.77"/>
<polygon fill="#4c566a" stroke="#4c566a" stroke-width="1.2" points="2934.47,-666.44 2942.88,-665.35 2935.63,-660.96 2934.47,-666.44"/>
</g>
<!-- evaluation -->
<g id="node18" class="node">
<title>evaluation</title>
<path fill="#f0f8ff" stroke="#2f3a45" stroke-width="1.4" d="M3107.36,-618.2C3107.36,-618.2 2967.2,-618.2 2967.2,-618.2 2961.2,-618.2 2955.2,-612.2 2955.2,-606.2 2955.2,-606.2 2955.2,-567.8 2955.2,-567.8 2955.2,-561.8 2961.2,-555.8 2967.2,-555.8 2967.2,-555.8 3107.36,-555.8 3107.36,-555.8 3113.36,-555.8 3119.36,-561.8 3119.36,-567.8 3119.36,-567.8 3119.36,-606.2 3119.36,-606.2 3119.36,-612.2 3113.36,-618.2 3107.36,-618.2"/>
<text text-anchor="start" x="2978.41" y="-600.6" font-family="Helvetica,sans-Serif" font-weight="bold" font-size="12.00">Post&#45;Run Evaluation</text>
<text text-anchor="start" x="2965.28" y="-588.6" font-family="Helvetica,sans-Serif" font-size="12.00">evaluate&#45;run against labels</text>
<text text-anchor="start" x="2988.16" y="-576.6" font-family="Helvetica,sans-Serif" font-size="12.00">precision/recall/F1</text>
<text text-anchor="start" x="2990.03" y="-564.6" font-family="Helvetica,sans-Serif" font-size="12.00">risk slices + gates</text>
</g>
<!-- artifacts&#45;&gt;evaluation -->
<g id="edge23" class="edge">
<title>artifacts&#45;&gt;evaluation</title>
<path fill="none" stroke="#4c566a" stroke-width="1.2" d="M2890.43,-617.68C2908.36,-613.91 2927.29,-609.93 2945.36,-606.13"/>
<polygon fill="#4c566a" stroke="#4c566a" stroke-width="1.2" points="2945.69,-608.92 2952.94,-604.53 2944.54,-603.44 2945.69,-608.92"/>
</g>
<!-- cache -->
<g id="node19" class="node">
<title>cache</title>
<polygon fill="#eef0f2" stroke="#2f3a45" stroke-width="1.4" points="128.91,-554.2 125.91,-558.2 104.91,-558.2 101.91,-554.2 0,-554.2 0,-479.8 128.91,-479.8 128.91,-554.2"/>
<text text-anchor="start" x="40.45" y="-536.6" font-family="Helvetica,sans-Serif" font-weight="bold" font-size="12.00">Caching</text>
<text text-anchor="start" x="28.45" y="-524.6" font-family="Helvetica,sans-Serif" font-size="12.00">normalization</text>
<text text-anchor="start" x="17.95" y="-512.6" font-family="Helvetica,sans-Serif" font-size="12.00">per&#45;layer retrieval</text>
<text text-anchor="start" x="12.7" y="-500.6" font-family="Helvetica,sans-Serif" font-size="12.00">scoring + clustering</text>
<text text-anchor="start" x="10.08" y="-488.6" font-family="Helvetica,sans-Serif" font-size="12.00">product embeddings</text>
</g>
<!-- cache&#45;&gt;normalize -->
<g id="edge28" class="edge">
<title>cache&#45;&gt;normalize</title>
<path fill="none" stroke="#4c566a" stroke-width="1.2" stroke-dasharray="1,5" d="M82.98,-479.54C98.68,-449.15 124.1,-406.79 155.91,-378 166.5,-368.42 178.79,-359.85 191.42,-352.34"/>
<polygon fill="#4c566a" stroke="#4c566a" stroke-width="1.2" points="192.64,-354.87 198.19,-348.46 189.86,-350.01 192.64,-354.87"/>
</g>
<!-- cache&#45;&gt;exact -->
<g id="edge29" class="edge">
<title>cache&#45;&gt;exact</title>
<path fill="none" stroke="#4c566a" stroke-width="1.2" stroke-dasharray="1,5" d="M129.4,-517.57C252.99,-518.66 524.44,-521.07 660.63,-522.28"/>
<polygon fill="#4c566a" stroke="#4c566a" stroke-width="1.2" points="660.36,-525.08 668.38,-522.35 660.41,-519.48 660.36,-525.08"/>
</g>
<!-- cache&#45;&gt;lexical -->
<g id="edge30" class="edge">
<title>cache&#45;&gt;lexical</title>
<path fill="none" stroke="#4c566a" stroke-width="1.2" stroke-dasharray="1,5" d="M71.12,-479.39C85.45,-389.74 126.17,-167.72 183.91,-124 342.38,-4.01 595.6,-144.26 697.41,-210.3"/>
<polygon fill="#4c566a" stroke="#4c566a" stroke-width="1.2" points="695.6,-212.46 703.82,-214.5 698.67,-207.78 695.6,-212.46"/>
</g>
<!-- cache&#45;&gt;trigram -->
<g id="edge31" class="edge">
<title>cache&#45;&gt;trigram</title>
<path fill="none" stroke="#4c566a" stroke-width="1.2" stroke-dasharray="1,5" d="M129.4,-508.3C247.08,-492.3 498.8,-458.07 640.19,-438.84"/>
<polygon fill="#4c566a" stroke="#4c566a" stroke-width="1.2" points="640.4,-441.63 647.95,-437.78 639.65,-436.09 640.4,-441.63"/>
</g>
<!-- cache&#45;&gt;vector -->
<g id="edge32" class="edge">
<title>cache&#45;&gt;vector</title>
<path fill="none" stroke="#4c566a" stroke-width="1.2" stroke-dasharray="1,5" d="M129.22,-487.13C146.71,-479.6 165.84,-471.97 183.91,-466 362.15,-407.1 412.47,-412.89 594.98,-369 612.27,-364.84 630.69,-360.37 648.44,-356.03"/>
<polygon fill="#4c566a" stroke="#4c566a" stroke-width="1.2" points="648.78,-358.83 655.88,-354.21 647.45,-353.39 648.78,-358.83"/>
</g>
<!-- cache&#45;&gt;semantic -->
<g id="edge33" class="edge">
<title>cache&#45;&gt;semantic</title>
<path fill="none" stroke="#4c566a" stroke-width="1.2" stroke-dasharray="1,5" d="M108.05,-554.58C149.05,-586.78 214.29,-628 279.61,-628 279.61,-628 279.61,-628 972.09,-628 1066.71,-628 1166.42,-576.53 1225.74,-539.64"/>
<polygon fill="#4c566a" stroke="#4c566a" stroke-width="1.2" points="1227.02,-542.14 1232.3,-535.51 1224.04,-537.41 1227.02,-542.14"/>
</g>
<!-- cache&#45;&gt;decision -->
<g id="edge34" class="edge">
<title>cache&#45;&gt;decision</title>
<path fill="none" stroke="#4c566a" stroke-width="1.2" stroke-dasharray="1,5" d="M86.38,-554.44C119.68,-608.5 190.19,-702 279.61,-702 279.61,-702 279.61,-702 1830.45,-702 1933.62,-702 2031.83,-624.47 2088.48,-569.52"/>
<polygon fill="#4c566a" stroke="#4c566a" stroke-width="1.2" points="2090.14,-571.81 2093.88,-564.21 2086.21,-567.82 2090.14,-571.81"/>
</g>
<!-- cache&#45;&gt;clustering -->
<g id="edge35" class="edge">
<title>cache&#45;&gt;clustering</title>
<path fill="none" stroke="#4c566a" stroke-width="1.2" stroke-dasharray="1,5" d="M76.95,-554.66C101.47,-626.49 166.13,-776 279.61,-776 279.61,-776 279.61,-776 2140.14,-776 2271.78,-776 2415.29,-713.52 2496.06,-672.04"/>
<polygon fill="#4c566a" stroke="#4c566a" stroke-width="1.2" points="2497.21,-674.6 2503.02,-668.43 2494.63,-669.63 2497.21,-674.6"/>
</g>
<!-- config -->
<g id="node20" class="node">
<title>config</title>
<polygon fill="#f8f0ff" stroke="#2f3a45" stroke-width="1.4" points="371.32,-228.2 183.91,-228.2 183.91,-141.8 377.32,-141.8 377.32,-222.2 371.32,-228.2"/>
<polyline fill="none" stroke="#2f3a45" stroke-width="1.4" points="371.32,-228.2 371.32,-222.2"/>
<polyline fill="none" stroke="#2f3a45" stroke-width="1.4" points="377.32,-222.2 371.32,-222.2"/>
<text text-anchor="start" x="235.61" y="-210.6" font-family="Helvetica,sans-Serif" font-weight="bold" font-size="12.00">Runtime Config</text>
<text text-anchor="start" x="269.36" y="-198.6" font-family="Helvetica,sans-Serif" font-size="12.00">.env</text>
<text text-anchor="start" x="232.99" y="-186.6" font-family="Helvetica,sans-Serif" font-size="12.00">DATABASE_URL</text>
<text text-anchor="start" x="193.99" y="-174.6" font-family="Helvetica,sans-Serif" font-size="12.00">embedding backend/dimensions</text>
<text text-anchor="start" x="241.24" y="-162.6" font-family="Helvetica,sans-Serif" font-size="12.00">retrieval fanout</text>
<text text-anchor="start" x="216.86" y="-150.6" font-family="Helvetica,sans-Serif" font-size="12.00">model path + thresholds</text>
</g>
<!-- config&#45;&gt;postgres -->
<g id="edge24" class="edge">
<title>config&#45;&gt;postgres</title>
<path fill="none" stroke="#4c566a" stroke-width="1.2" stroke-dasharray="5,2" d="M359.83,-228.67C384.77,-242.6 412.3,-257.97 437.04,-271.78"/>
<polygon fill="#4c566a" stroke="#4c566a" stroke-width="1.2" points="435.38,-274.07 443.73,-275.52 438.11,-269.18 435.38,-274.07"/>
</g>
<!-- config&#45;&gt;vector -->
<g id="edge25" class="edge">
<title>config&#45;&gt;vector</title>
<path fill="none" stroke="#4c566a" stroke-width="1.2" stroke-dasharray="5,2" d="M377.58,-201.59C440.49,-213.94 523.94,-233.13 594.98,-259 610.93,-264.81 643.73,-281.17 674.31,-297.03"/>
<polygon fill="#4c566a" stroke="#4c566a" stroke-width="1.2" points="672.86,-299.43 681.25,-300.64 675.45,-294.47 672.86,-299.43"/>
</g>
<!-- config&#45;&gt;ml -->
<g id="edge26" class="edge">
<title>config&#45;&gt;ml</title>
<path fill="none" stroke="#4c566a" stroke-width="1.2" stroke-dasharray="5,2" d="M377.74,-162.62C419.03,-154.83 467.97,-148 512.65,-148 512.65,-148 512.65,-148 1590.66,-148 1692.66,-148 1771.32,-257.96 1807.17,-319.12"/>
<polygon fill="#4c566a" stroke="#4c566a" stroke-width="1.2" points="1804.62,-320.3 1811.04,-325.84 1809.48,-317.51 1804.62,-320.3"/>
</g>
<!-- config&#45;&gt;decision -->
<g id="edge27" class="edge">
<title>config&#45;&gt;decision</title>
<path fill="none" stroke="#4c566a" stroke-width="1.2" stroke-dasharray="5,2" d="M309.03,-141.63C347.35,-86.95 422.47,0 512.65,0 512.65,0 512.65,0 1830.45,0 2035.77,0 2107.26,-305.1 2129.34,-446.09"/>
<polygon fill="#4c566a" stroke="#4c566a" stroke-width="1.2" points="2126.53,-446.26 2130.51,-453.75 2132.07,-445.42 2126.53,-446.26"/>
</g>
</g>
</svg>
