<?xml version="1.0" encoding="UTF-8" standalone="no"?>
<!DOCTYPE svg PUBLIC "-//W3C//DTD SVG 1.1//EN"
 "http://www.w3.org/Graphics/SVG/1.1/DTD/svg11.dtd">
<!-- Generated by graphviz version 12.2.1 (20241206.2353)
 -->
<!-- Title: DedupePipeline Pages: 1 -->
<svg width="3052pt" height="798pt"
 viewBox="0.00 0.00 3052.46 798.10" xmlns="http://www.w3.org/2000/svg" xmlns:xlink="http://www.w3.org/1999/xlink">
<g id="graph0" class="graph" transform="scale(1 1) rotate(0) translate(25.2 772.9)">
<title>DedupePipeline</title>
<polygon fill="white" stroke="none" points="-25.2,25.2 -25.2,-772.9 3027.26,-772.9 3027.26,25.2 -25.2,25.2"/>
<text text-anchor="middle" x="1501.03" y="-730.4" font-family="Helvetica,sans-Serif" font-size="14.00">Cartsy Dedupe Pipeline &#45; Main Runtime Parts</text>
<!-- input -->
<g id="node1" class="node">
<title>input</title>
<path fill="#eaf2ff" stroke="#3b4252" stroke-width="1.4" d="M147.66,-404.65C147.66,-404.65 55.5,-404.65 55.5,-404.65 49.5,-404.65 43.5,-398.65 43.5,-392.65 43.5,-392.65 43.5,-376.75 43.5,-376.75 43.5,-370.75 49.5,-364.75 55.5,-364.75 55.5,-364.75 147.66,-364.75 147.66,-364.75 153.66,-364.75 159.66,-370.75 159.66,-376.75 159.66,-376.75 159.66,-392.65 159.66,-392.65 159.66,-398.65 153.66,-404.65 147.66,-404.65"/>
<text text-anchor="middle" x="101.58" y="-386.05" font-family="Helvetica,sans-Serif" font-size="12.00">Product CSV</text>
<text text-anchor="middle" x="101.58" y="-373.3" font-family="Helvetica,sans-Serif" font-size="12.00">cartsy&#45;dedupe run</text>
</g>
<!-- normalize -->
<g id="node2" class="node">
<title>normalize</title>
<path fill="#eef7ed" stroke="#3b4252" stroke-width="1.4" d="M395.82,-417.4C395.82,-417.4 266.16,-417.4 266.16,-417.4 260.16,-417.4 254.16,-411.4 254.16,-405.4 254.16,-405.4 254.16,-364 254.16,-364 254.16,-358 260.16,-352 266.16,-352 266.16,-352 395.82,-352 395.82,-352 401.82,-352 407.82,-358 407.82,-364 407.82,-364 407.82,-405.4 407.82,-405.4 407.82,-411.4 401.82,-417.4 395.82,-417.4"/>
<text text-anchor="middle" x="330.99" y="-398.8" font-family="Helvetica,sans-Serif" font-size="12.00">1. Ingest + Normalize</text>
<text text-anchor="middle" x="330.99" y="-386.05" font-family="Helvetica,sans-Serif" font-size="12.00">canonical fields, IDs,</text>
<text text-anchor="middle" x="330.99" y="-373.3" font-family="Helvetica,sans-Serif" font-size="12.00">size, pack, model tokens,</text>
<text text-anchor="middle" x="330.99" y="-360.55" font-family="Helvetica,sans-Serif" font-size="12.00">quality flags</text>
</g>
<!-- input&#45;&gt;normalize -->
<g id="edge1" class="edge">
<title>input&#45;&gt;normalize</title>
<path fill="none" stroke="#4c566a" stroke-width="1.2" d="M159.97,-384.7C185.39,-384.7 215.84,-384.7 243.9,-384.7"/>
<polygon fill="#4c566a" stroke="#4c566a" stroke-width="1.2" points="243.9,-387.5 251.9,-384.7 243.9,-381.9 243.9,-387.5"/>
</g>
<!-- postgres -->
<g id="node3" class="node">
<title>postgres</title>
<path fill="#f3efff" stroke="#3b4252" stroke-width="1.4" d="M581.73,-417.4C581.73,-417.4 470.82,-417.4 470.82,-417.4 464.82,-417.4 458.82,-411.4 458.82,-405.4 458.82,-405.4 458.82,-364 458.82,-364 458.82,-358 464.82,-352 470.82,-352 470.82,-352 581.73,-352 581.73,-352 587.73,-352 593.73,-358 593.73,-364 593.73,-364 593.73,-405.4 593.73,-405.4 593.73,-411.4 587.73,-417.4 581.73,-417.4"/>
<text text-anchor="middle" x="526.27" y="-398.8" font-family="Helvetica,sans-Serif" font-size="12.00">Postgres Load</text>
<text text-anchor="middle" x="526.27" y="-386.05" font-family="Helvetica,sans-Serif" font-size="12.00">normalized products,</text>
<text text-anchor="middle" x="526.27" y="-373.3" font-family="Helvetica,sans-Serif" font-size="12.00">exact&#45;key tables,</text>
<text text-anchor="middle" x="526.27" y="-360.55" font-family="Helvetica,sans-Serif" font-size="12.00">retrieval helper tables</text>
</g>
<!-- normalize&#45;&gt;postgres -->
<g id="edge2" class="edge">
<title>normalize&#45;&gt;postgres</title>
<path fill="none" stroke="#4c566a" stroke-width="1.2" d="M408.1,-384.7C421.54,-384.7 435.52,-384.7 448.96,-384.7"/>
<polygon fill="#4c566a" stroke="#4c566a" stroke-width="1.2" points="448.81,-387.5 456.81,-384.7 448.81,-381.9 448.81,-387.5"/>
</g>
<!-- candidates -->
<g id="node4" class="node">
<title>candidates</title>
<path fill="#fff4df" stroke="#3b4252" stroke-width="1.4" d="M804.39,-411.02C804.39,-411.02 656.73,-411.02 656.73,-411.02 650.73,-411.02 644.73,-405.02 644.73,-399.02 644.73,-399.02 644.73,-370.38 644.73,-370.38 644.73,-364.38 650.73,-358.38 656.73,-358.38 656.73,-358.38 804.39,-358.38 804.39,-358.38 810.39,-358.38 816.39,-364.38 816.39,-370.38 816.39,-370.38 816.39,-399.02 816.39,-399.02 816.39,-405.02 810.39,-411.02 804.39,-411.02"/>
<text text-anchor="middle" x="730.56" y="-392.43" font-family="Helvetica,sans-Serif" font-size="12.00">2. Candidate Retrieval</text>
<text text-anchor="middle" x="730.56" y="-379.68" font-family="Helvetica,sans-Serif" font-size="12.00">exact keys + FTS + trigram +</text>
<text text-anchor="middle" x="730.56" y="-366.93" font-family="Helvetica,sans-Serif" font-size="12.00">gated pgvector search</text>
</g>
<!-- postgres&#45;&gt;candidates -->
<g id="edge3" class="edge">
<title>postgres&#45;&gt;candidates</title>
<path fill="none" stroke="#4c566a" stroke-width="1.2" d="M594.07,-384.7C607.16,-384.7 621.12,-384.7 634.92,-384.7"/>
<polygon fill="#4c566a" stroke="#4c566a" stroke-width="1.2" points="634.62,-387.5 642.62,-384.7 634.62,-381.9 634.62,-387.5"/>
</g>
<!-- semantic -->
<g id="node5" class="node">
<title>semantic</title>
<path fill="#fceff5" stroke="#3b4252" stroke-width="1.4" d="M1108.55,-358.02C1108.55,-358.02 944.39,-358.02 944.39,-358.02 938.39,-358.02 932.39,-352.02 932.39,-346.02 932.39,-346.02 932.39,-317.38 932.39,-317.38 932.39,-311.38 938.39,-305.38 944.39,-305.38 944.39,-305.38 1108.55,-305.38 1108.55,-305.38 1114.55,-305.38 1120.55,-311.38 1120.55,-317.38 1120.55,-317.38 1120.55,-346.02 1120.55,-346.02 1120.55,-352.02 1114.55,-358.02 1108.55,-358.02"/>
<text text-anchor="middle" x="1026.47" y="-339.43" font-family="Helvetica,sans-Serif" font-size="12.00">3. Dense Semantic Similarity</text>
<text text-anchor="middle" x="1026.47" y="-326.68" font-family="Helvetica,sans-Serif" font-size="12.00">embed candidate&#45;pair products,</text>
<text text-anchor="middle" x="1026.47" y="-313.93" font-family="Helvetica,sans-Serif" font-size="12.00">compute pairwise cosine</text>
</g>
<!-- candidates&#45;&gt;semantic -->
<g id="edge4" class="edge">
<title>candidates&#45;&gt;semantic</title>
<path fill="none" stroke="#4c566a" stroke-width="1.2" d="M816.57,-369.37C849.58,-363.42 887.69,-356.55 922.25,-350.31"/>
<polygon fill="#4c566a" stroke="#4c566a" stroke-width="1.2" points="922.73,-353.07 930.11,-348.9 921.74,-347.56 922.73,-353.07"/>
<text text-anchor="middle" x="874.39" y="-366.26" font-family="Helvetica,sans-Serif" font-size="10.00">candidate pairs</text>
</g>
<!-- features -->
<g id="node6" class="node">
<title>features</title>
<path fill="#edf7f7" stroke="#3b4252" stroke-width="1.4" d="M1423.21,-452.4C1423.21,-452.4 1243.3,-452.4 1243.3,-452.4 1237.3,-452.4 1231.3,-446.4 1231.3,-440.4 1231.3,-440.4 1231.3,-399 1231.3,-399 1231.3,-393 1237.3,-387 1243.3,-387 1243.3,-387 1423.21,-387 1423.21,-387 1429.21,-387 1435.21,-393 1435.21,-399 1435.21,-399 1435.21,-440.4 1435.21,-440.4 1435.21,-446.4 1429.21,-452.4 1423.21,-452.4"/>
<text text-anchor="middle" x="1333.25" y="-433.8" font-family="Helvetica,sans-Serif" font-size="12.00">4. Pairwise ML Features</text>
<text text-anchor="middle" x="1333.25" y="-421.05" font-family="Helvetica,sans-Serif" font-size="12.00">DEFAULT_FEATURE_COLUMNS</text>
<text text-anchor="middle" x="1333.25" y="-408.3" font-family="Helvetica,sans-Serif" font-size="12.00">retrieval, lexical, semantic,</text>
<text text-anchor="middle" x="1333.25" y="-395.55" font-family="Helvetica,sans-Serif" font-size="12.00">identifier, price, variant signals</text>
</g>
<!-- candidates&#45;&gt;features -->
<g id="edge6" class="edge">
<title>candidates&#45;&gt;features</title>
<path fill="none" stroke="#4c566a" stroke-width="1.2" d="M816.67,-389.66C922.76,-395.84 1104.33,-406.42 1221.25,-413.23"/>
<polygon fill="#4c566a" stroke="#4c566a" stroke-width="1.2" points="1220.99,-416.02 1229.14,-413.69 1221.32,-410.43 1220.99,-416.02"/>
<text text-anchor="middle" x="1026.47" y="-408.57" font-family="Helvetica,sans-Serif" font-size="10.00">retrieval evidence</text>
</g>
<!-- semantic&#45;&gt;features -->
<g id="edge5" class="edge">
<title>semantic&#45;&gt;features</title>
<path fill="none" stroke="#4c566a" stroke-width="1.2" d="M1120.16,-358.46C1152.17,-367.71 1188.37,-378.16 1221.67,-387.77"/>
<polygon fill="#4c566a" stroke="#4c566a" stroke-width="1.2" points="1220.78,-390.43 1229.24,-389.96 1222.33,-385.05 1220.78,-390.43"/>
<text text-anchor="middle" x="1175.92" y="-382.72" font-family="Helvetica,sans-Serif" font-size="10.00">semantic_sim</text>
</g>
<!-- rules -->
<g id="node7" class="node">
<title>rules</title>
<path fill="#fff0ec" stroke="#3b4252" stroke-width="1.4" d="M1709.62,-381.02C1709.62,-381.02 1498.21,-381.02 1498.21,-381.02 1492.21,-381.02 1486.21,-375.02 1486.21,-369.02 1486.21,-369.02 1486.21,-340.38 1486.21,-340.38 1486.21,-334.38 1492.21,-328.38 1498.21,-328.38 1498.21,-328.38 1709.62,-328.38 1709.62,-328.38 1715.62,-328.38 1721.62,-334.38 1721.62,-340.38 1721.62,-340.38 1721.62,-369.02 1721.62,-369.02 1721.62,-375.02 1715.62,-381.02 1709.62,-381.02"/>
<text text-anchor="middle" x="1603.91" y="-362.43" font-family="Helvetica,sans-Serif" font-size="12.00">5. Rule Evaluation</text>
<text text-anchor="middle" x="1603.91" y="-349.68" font-family="Helvetica,sans-Serif" font-size="12.00">CERTAIN_BLOCK / CERTAIN_MATCH /</text>
<text text-anchor="middle" x="1603.91" y="-336.93" font-family="Helvetica,sans-Serif" font-size="12.00">STRONG / LIKELY / UNCERTAIN</text>
</g>
<!-- features&#45;&gt;rules -->
<g id="edge7" class="edge">
<title>features&#45;&gt;rules</title>
<path fill="none" stroke="#4c566a" stroke-width="1.2" d="M1435.44,-395.22C1450.98,-391.46 1467.16,-387.55 1483.06,-383.7"/>
<polygon fill="#4c566a" stroke="#4c566a" stroke-width="1.2" points="1483.5,-386.47 1490.62,-381.87 1482.18,-381.03 1483.5,-386.47"/>
</g>
<!-- decision -->
<g id="node8" class="node">
<title>decision</title>
<path fill="#ffe8cc" stroke="#3b4252" stroke-width="1.4" d="M2054.55,-197.64C2054.55,-197.64 1892.67,-151.96 1892.67,-151.96 1886.89,-150.33 1886.89,-147.07 1892.67,-145.44 1892.67,-145.44 2054.55,-99.76 2054.55,-99.76 2060.32,-98.13 2071.87,-98.13 2077.65,-99.76 2077.65,-99.76 2239.53,-145.44 2239.53,-145.44 2245.3,-147.07 2245.3,-150.33 2239.53,-151.96 2239.53,-151.96 2077.65,-197.64 2077.65,-197.64 2071.87,-199.27 2060.32,-199.27 2054.55,-197.64"/>
<text text-anchor="middle" x="2066.1" y="-162.8" font-family="Helvetica,sans-Serif" font-size="12.00">Merge Decision</text>
<text text-anchor="middle" x="2066.1" y="-150.05" font-family="Helvetica,sans-Serif" font-size="12.00">bypass obvious exact/block cases;</text>
<text text-anchor="middle" x="2066.1" y="-137.3" font-family="Helvetica,sans-Serif" font-size="12.00">otherwise calibrated logistic</text>
<text text-anchor="middle" x="2066.1" y="-124.55" font-family="Helvetica,sans-Serif" font-size="12.00">regression threshold</text>
</g>
<!-- rules&#45;&gt;decision -->
<g id="edge8" class="edge">
<title>rules&#45;&gt;decision</title>
<path fill="none" stroke="#4c566a" stroke-width="1.2" d="M1664.6,-327.98C1746.27,-291.42 1893.1,-225.69 1984.48,-184.79"/>
<polygon fill="#4c566a" stroke="#4c566a" stroke-width="1.2" points="1985.6,-187.35 1991.76,-181.53 1983.32,-182.24 1985.6,-187.35"/>
</g>
<!-- clustering -->
<g id="node9" class="node">
<title>clustering</title>
<path fill="#edf1ff" stroke="#3b4252" stroke-width="1.4" d="M2522.24,-495.02C2522.24,-495.02 2369.33,-495.02 2369.33,-495.02 2363.33,-495.02 2357.33,-489.02 2357.33,-483.02 2357.33,-483.02 2357.33,-454.38 2357.33,-454.38 2357.33,-448.38 2363.33,-442.38 2369.33,-442.38 2369.33,-442.38 2522.24,-442.38 2522.24,-442.38 2528.24,-442.38 2534.24,-448.38 2534.24,-454.38 2534.24,-454.38 2534.24,-483.02 2534.24,-483.02 2534.24,-489.02 2528.24,-495.02 2522.24,-495.02"/>
<text text-anchor="middle" x="2445.78" y="-476.43" font-family="Helvetica,sans-Serif" font-size="12.00">6. Cluster Accepted Edges</text>
<text text-anchor="middle" x="2445.78" y="-463.68" font-family="Helvetica,sans-Serif" font-size="12.00">union connected components</text>
<text text-anchor="middle" x="2445.78" y="-450.93" font-family="Helvetica,sans-Serif" font-size="12.00">with cluster&#45;level guards</text>
</g>
<!-- decision&#45;&gt;clustering -->
<g id="edge9" class="edge">
<title>decision&#45;&gt;clustering</title>
<path fill="none" stroke="#4c566a" stroke-width="1.2" d="M2113.41,-187.94C2188.58,-251.62 2335.77,-376.34 2405.87,-435.73"/>
<polygon fill="#4c566a" stroke="#4c566a" stroke-width="1.2" points="2403.92,-437.75 2411.84,-440.78 2407.54,-433.48 2403.92,-437.75"/>
<text text-anchor="middle" x="2304.2" y="-366.94" font-family="Helvetica,sans-Serif" font-size="10.00">merge edges</text>
</g>
<!-- artifacts -->
<g id="node10" class="node">
<title>artifacts</title>
<path fill="#f7f7f7" stroke="#3b4252" stroke-width="1.4" d="M2748.65,-520.52C2748.65,-520.52 2597.24,-520.52 2597.24,-520.52 2591.24,-520.52 2585.24,-514.52 2585.24,-508.52 2585.24,-508.52 2585.24,-428.88 2585.24,-428.88 2585.24,-422.88 2591.24,-416.88 2597.24,-416.88 2597.24,-416.88 2748.65,-416.88 2748.65,-416.88 2754.65,-416.88 2760.65,-422.88 2760.65,-428.88 2760.65,-428.88 2760.65,-508.52 2760.65,-508.52 2760.65,-514.52 2754.65,-520.52 2748.65,-520.52"/>
<text text-anchor="middle" x="2672.94" y="-501.93" font-family="Helvetica,sans-Serif" font-size="12.00">10. Run Artifacts</text>
<text text-anchor="middle" x="2672.94" y="-489.18" font-family="Helvetica,sans-Serif" font-size="12.00">normalized_products.parquet</text>
<text text-anchor="middle" x="2672.94" y="-476.43" font-family="Helvetica,sans-Serif" font-size="12.00">candidate_pairs.parquet</text>
<text text-anchor="middle" x="2672.94" y="-463.68" font-family="Helvetica,sans-Serif" font-size="12.00">product_assignments.csv</text>
<text text-anchor="middle" x="2672.94" y="-450.93" font-family="Helvetica,sans-Serif" font-size="12.00">dedupe_groups.jsonl</text>
<text text-anchor="middle" x="2672.94" y="-438.18" font-family="Helvetica,sans-Serif" font-size="12.00">near_miss_pairs.csv</text>
<text text-anchor="middle" x="2672.94" y="-425.43" font-family="Helvetica,sans-Serif" font-size="12.00">summary_report.json</text>
</g>
<!-- clustering&#45;&gt;artifacts -->
<g id="edge10" class="edge">
<title>clustering&#45;&gt;artifacts</title>
<path fill="none" stroke="#4c566a" stroke-width="1.2" d="M2534.48,-468.7C2547.8,-468.7 2561.6,-468.7 2575.09,-468.7"/>
<polygon fill="#4c566a" stroke="#4c566a" stroke-width="1.2" points="2575.04,-471.5 2583.04,-468.7 2575.04,-465.9 2575.04,-471.5"/>
</g>
<!-- api -->
<g id="node11" class="node">
<title>api</title>
<path fill="#f2f2f2" stroke="#3b4252" stroke-width="1.4" d="M2990.06,-495.02C2990.06,-495.02 2823.65,-495.02 2823.65,-495.02 2817.65,-495.02 2811.65,-489.02 2811.65,-483.02 2811.65,-483.02 2811.65,-454.38 2811.65,-454.38 2811.65,-448.38 2817.65,-442.38 2823.65,-442.38 2823.65,-442.38 2990.06,-442.38 2990.06,-442.38 2996.06,-442.38 3002.06,-448.38 3002.06,-454.38 3002.06,-454.38 3002.06,-483.02 3002.06,-483.02 3002.06,-489.02 2996.06,-495.02 2990.06,-495.02"/>
<text text-anchor="middle" x="2906.85" y="-476.43" font-family="Helvetica,sans-Serif" font-size="12.00">Artifact API</text>
<text text-anchor="middle" x="2906.85" y="-463.68" font-family="Helvetica,sans-Serif" font-size="12.00">cartsy&#45;dedupe serve</text>
<text text-anchor="middle" x="2906.85" y="-450.93" font-family="Helvetica,sans-Serif" font-size="12.00">read&#45;only completed&#45;run access</text>
</g>
<!-- artifacts&#45;&gt;api -->
<g id="edge11" class="edge">
<title>artifacts&#45;&gt;api</title>
<path fill="none" stroke="#4c566a" stroke-width="1.2" d="M2760.96,-468.7C2774.32,-468.7 2788.24,-468.7 2801.93,-468.7"/>
<polygon fill="#4c566a" stroke="#4c566a" stroke-width="1.2" points="2801.54,-471.5 2809.54,-468.7 2801.54,-465.9 2801.54,-471.5"/>
</g>
<!-- training -->
<g id="node12" class="node">
<title>training</title>
<path fill="#e8f7ff" stroke="#3b4252" stroke-width="1.4" d="M1702.12,-65.4C1702.12,-65.4 1505.71,-65.4 1505.71,-65.4 1499.71,-65.4 1493.71,-59.4 1493.71,-53.4 1493.71,-53.4 1493.71,-12 1493.71,-12 1493.71,-6 1499.71,0 1505.71,0 1505.71,0 1702.12,0 1702.12,0 1708.12,0 1714.12,-6 1714.12,-12 1714.12,-12 1714.12,-53.4 1714.12,-53.4 1714.12,-59.4 1708.12,-65.4 1702.12,-65.4"/>
<text text-anchor="middle" x="1603.91" y="-46.8" font-family="Helvetica,sans-Serif" font-size="12.00">7. Training + Evaluation</text>
<text text-anchor="middle" x="1603.91" y="-34.05" font-family="Helvetica,sans-Serif" font-size="12.00">augmented data, calibrated threshold,</text>
<text text-anchor="middle" x="1603.91" y="-21.3" font-family="Helvetica,sans-Serif" font-size="12.00">curves, coefficients, FP/FN,</text>
<text text-anchor="middle" x="1603.91" y="-8.55" font-family="Helvetica,sans-Serif" font-size="12.00">risky clusters</text>
</g>
<!-- training&#45;&gt;decision -->
<g id="edge12" class="edge">
<title>training&#45;&gt;decision</title>
<path fill="none" stroke="#4c566a" stroke-width="1.2" stroke-dasharray="5,2" d="M1714.55,-52.93C1758.75,-61.7 1810.07,-72.66 1856.12,-84.45 1893.92,-94.13 1935.05,-106.39 1970.75,-117.61"/>
<polygon fill="#4c566a" stroke="#4c566a" stroke-width="1.2" points="1969.5,-120.15 1977.97,-119.89 1971.19,-114.81 1969.5,-120.15"/>
<text text-anchor="middle" x="1801.37" y="-86.2" font-family="Helvetica,sans-Serif" font-size="10.00">model bundle + threshold</text>
</g>
<!-- cache -->
<g id="node13" class="node">
<title>cache</title>
<polygon fill="#eef0f2" stroke="#3b4252" stroke-width="1.4" points="203.16,-587.03 200.16,-591.03 179.16,-591.03 176.16,-587.03 0,-587.03 0,-534.38 203.16,-534.38 203.16,-587.03"/>
<text text-anchor="middle" x="101.58" y="-568.43" font-family="Helvetica,sans-Serif" font-size="12.00">9. Caching Policy</text>
<text text-anchor="middle" x="101.58" y="-555.68" font-family="Helvetica,sans-Serif" font-size="12.00">stage caches + per&#45;layer retrieval</text>
<text text-anchor="middle" x="101.58" y="-542.93" font-family="Helvetica,sans-Serif" font-size="12.00">cache + product embedding cache</text>
</g>
<!-- cache&#45;&gt;normalize -->
<g id="edge17" class="edge">
<title>cache&#45;&gt;normalize</title>
<path fill="none" stroke="#4c566a" stroke-width="1.2" stroke-dasharray="1,5" d="M133.52,-533.95C158.62,-512.54 195.12,-482 228.16,-456.7 242.72,-445.55 258.8,-433.89 273.8,-423.28"/>
<polygon fill="#4c566a" stroke="#4c566a" stroke-width="1.2" points="275.11,-425.78 280.04,-418.88 271.89,-421.2 275.11,-425.78"/>
</g>
<!-- cache&#45;&gt;candidates -->
<g id="edge18" class="edge">
<title>cache&#45;&gt;candidates</title>
<path fill="none" stroke="#4c566a" stroke-width="1.2" stroke-dasharray="1,5" d="M203.49,-535.78C341.68,-501.59 574.97,-443.68 593.73,-437.7 614.53,-431.07 636.73,-422.89 657.02,-414.96"/>
<polygon fill="#4c566a" stroke="#4c566a" stroke-width="1.2" points="657.79,-417.67 664.21,-412.13 655.74,-412.46 657.79,-417.67"/>
</g>
<!-- cache&#45;&gt;semantic -->
<g id="edge19" class="edge">
<title>cache&#45;&gt;semantic</title>
<path fill="none" stroke="#4c566a" stroke-width="1.2" stroke-dasharray="1,5" d="M203.62,-560.7C243.05,-560.7 288.63,-560.7 329.99,-560.7 329.99,-560.7 329.99,-560.7 731.56,-560.7 849.66,-560.7 836.53,-455.69 932.39,-386.7 943.65,-378.59 956.18,-370.58 968.29,-363.29"/>
<polygon fill="#4c566a" stroke="#4c566a" stroke-width="1.2" points="969.58,-365.78 975.03,-359.28 966.72,-360.96 969.58,-365.78"/>
</g>
<!-- cache&#45;&gt;features -->
<g id="edge20" class="edge">
<title>cache&#45;&gt;features</title>
<path fill="none" stroke="#4c566a" stroke-width="1.2" stroke-dasharray="1,5" d="M147.47,-587.32C192.15,-611.27 263.47,-642.7 329.99,-642.7 329.99,-642.7 329.99,-642.7 1027.47,-642.7 1149.7,-642.7 1255.53,-524.45 1304.04,-460.16"/>
<polygon fill="#4c566a" stroke="#4c566a" stroke-width="1.2" points="1306.05,-462.15 1308.58,-454.06 1301.56,-458.81 1306.05,-462.15"/>
</g>
<!-- cache&#45;&gt;clustering -->
<g id="edge21" class="edge">
<title>cache&#45;&gt;clustering</title>
<path fill="none" stroke="#4c566a" stroke-width="1.2" stroke-dasharray="1,5" d="M121.41,-587.41C156.61,-633.89 237.26,-724.7 329.99,-724.7 329.99,-724.7 329.99,-724.7 2067.1,-724.7 2223.46,-724.7 2363.24,-572.5 2419.05,-502.81"/>
<polygon fill="#4c566a" stroke="#4c566a" stroke-width="1.2" points="2421.23,-504.57 2423.99,-496.56 2416.83,-501.09 2421.23,-504.57"/>
</g>
<!-- config -->
<g id="node14" class="node">
<title>config</title>
<polygon fill="#f8f0ff" stroke="#3b4252" stroke-width="1.4" points="185.16,-282.4 12,-282.4 12,-217 191.16,-217 191.16,-276.4 185.16,-282.4"/>
<polyline fill="none" stroke="#3b4252" stroke-width="1.4" points="185.16,-282.4 185.16,-276.4"/>
<polyline fill="none" stroke="#3b4252" stroke-width="1.4" points="191.16,-276.4 185.16,-276.4"/>
<text text-anchor="middle" x="101.58" y="-263.8" font-family="Helvetica,sans-Serif" font-size="12.00">Runtime Config</text>
<text text-anchor="middle" x="101.58" y="-251.05" font-family="Helvetica,sans-Serif" font-size="12.00">.env, DATABASE_URL,</text>
<text text-anchor="middle" x="101.58" y="-238.3" font-family="Helvetica,sans-Serif" font-size="12.00">embedding model, fanout,</text>
<text text-anchor="middle" x="101.58" y="-225.55" font-family="Helvetica,sans-Serif" font-size="12.00">ML model path, cache toggles</text>
</g>
<!-- config&#45;&gt;normalize -->
<g id="edge13" class="edge">
<title>config&#45;&gt;normalize</title>
<path fill="none" stroke="#4c566a" stroke-width="1.2" stroke-dasharray="5,2" d="M158.5,-282.9C190.99,-302.19 232.06,-326.56 265.86,-346.63"/>
<polygon fill="#4c566a" stroke="#4c566a" stroke-width="1.2" points="264.41,-349.03 272.72,-350.7 267.27,-344.21 264.41,-349.03"/>
</g>
<!-- config&#45;&gt;candidates -->
<g id="edge14" class="edge">
<title>config&#45;&gt;candidates</title>
<path fill="none" stroke="#4c566a" stroke-width="1.2" stroke-dasharray="5,2" d="M191.61,-258.96C290.93,-270.57 455.79,-293.71 593.73,-331.7 615.72,-337.76 639.07,-346.12 660.08,-354.41"/>
<polygon fill="#4c566a" stroke="#4c566a" stroke-width="1.2" points="658.78,-356.91 667.25,-357.28 660.86,-351.71 658.78,-356.91"/>
</g>
<!-- config&#45;&gt;semantic -->
<g id="edge15" class="edge">
<title>config&#45;&gt;semantic</title>
<path fill="none" stroke="#4c566a" stroke-width="1.2" stroke-dasharray="5,2" d="M191.56,-226.09C233.28,-216.97 283.85,-208.7 329.99,-208.7 329.99,-208.7 329.99,-208.7 731.56,-208.7 825.93,-208.7 925.06,-263.33 980.68,-299.77"/>
<polygon fill="#4c566a" stroke="#4c566a" stroke-width="1.2" points="978.84,-301.91 987.06,-304.01 981.94,-297.25 978.84,-301.91"/>
</g>
<!-- config&#45;&gt;decision -->
<g id="edge16" class="edge">
<title>config&#45;&gt;decision</title>
<path fill="none" stroke="#4c566a" stroke-width="1.2" stroke-dasharray="5,2" d="M137.24,-216.74C179.32,-180.3 254.13,-126.7 329.99,-126.7 329.99,-126.7 329.99,-126.7 1604.91,-126.7 1705.72,-126.7 1818.81,-132.03 1907.65,-137.45"/>
<polygon fill="#4c566a" stroke="#4c566a" stroke-width="1.2" points="1907.29,-140.23 1915.45,-137.93 1907.64,-134.64 1907.29,-140.23"/>
</g>
</g>
</svg>
