<?xml version="1.0" encoding="UTF-8" standalone="no"?>
<!DOCTYPE svg PUBLIC "-//W3C//DTD SVG 1.1//EN"
 "http://www.w3.org/Graphics/SVG/1.1/DTD/svg11.dtd">
<!-- Generated by graphviz version 12.2.1 (20241206.2353)
 -->
<!-- Title: DedupePipeline Pages: 1 -->
<svg width="3178pt" height="853pt"
 viewBox="0.00 0.00 3177.98 853.40" xmlns="http://www.w3.org/2000/svg" xmlns:xlink="http://www.w3.org/1999/xlink">
<g id="graph0" class="graph" transform="scale(1 1) rotate(0) translate(25.2 828.2)">
<title>DedupePipeline</title>
<polygon fill="white" stroke="none" points="-25.2,25.2 -25.2,-828.2 3152.78,-828.2 3152.78,25.2 -25.2,25.2"/>
<text text-anchor="middle" x="1563.79" y="-785.7" font-family="Helvetica,sans-Serif" font-size="14.00">Cartsy Runtime Dedupe Pipeline</text>
<!-- input -->
<g id="node1" class="node">
<title>input</title>
<path fill="#eaf2ff" stroke="#2f3a45" stroke-width="1.4" d="M111.28,-50.95C111.28,-50.95 17.62,-50.95 17.62,-50.95 11.62,-50.95 5.62,-44.95 5.62,-38.95 5.62,-38.95 5.62,-23.05 5.62,-23.05 5.62,-17.05 11.62,-11.05 17.62,-11.05 17.62,-11.05 111.28,-11.05 111.28,-11.05 117.28,-11.05 123.28,-17.05 123.28,-23.05 123.28,-23.05 123.28,-38.95 123.28,-38.95 123.28,-44.95 117.28,-50.95 111.28,-50.95"/>
<text text-anchor="middle" x="64.45" y="-32.35" font-family="Helvetica,sans-Serif" font-size="12.00">Raw Product CSV</text>
<text text-anchor="middle" x="64.45" y="-19.6" font-family="Helvetica,sans-Serif" font-size="12.00">cartsy&#45;dedupe run</text>
</g>
<!-- normalize -->
<g id="node2" class="node">
<title>normalize</title>
<path fill="#eef7ed" stroke="#2f3a45" stroke-width="1.4" d="M349.19,-355.07C349.19,-355.07 212.03,-355.07 212.03,-355.07 206.03,-355.07 200.03,-349.07 200.03,-343.07 200.03,-343.07 200.03,-288.93 200.03,-288.93 200.03,-282.93 206.03,-276.93 212.03,-276.93 212.03,-276.93 349.19,-276.93 349.19,-276.93 355.19,-276.93 361.19,-282.93 361.19,-288.93 361.19,-288.93 361.19,-343.07 361.19,-343.07 361.19,-349.07 355.19,-355.07 349.19,-355.07"/>
<text text-anchor="middle" x="280.61" y="-336.48" font-family="Helvetica,sans-Serif" font-size="12.00">1. Ingest + Normalize</text>
<text text-anchor="middle" x="280.61" y="-323.73" font-family="Helvetica,sans-Serif" font-size="12.00">canonical schema</text>
<text text-anchor="middle" x="280.61" y="-310.98" font-family="Helvetica,sans-Serif" font-size="12.00">brand/title/category/specs</text>
<text text-anchor="middle" x="280.61" y="-298.23" font-family="Helvetica,sans-Serif" font-size="12.00">IDs, URL keys, size, pack,</text>
<text text-anchor="middle" x="280.61" y="-285.48" font-family="Helvetica,sans-Serif" font-size="12.00">model tokens, quality flags</text>
</g>
<!-- input&#45;&gt;normalize -->
<g id="edge1" class="edge">
<title>input&#45;&gt;normalize</title>
<path fill="none" stroke="#4c566a" stroke-width="1.2" d="M72.96,-51.43C88.69,-92.27 128.32,-185.43 183.91,-248 191.03,-256.01 199.26,-263.61 207.85,-270.61"/>
<polygon fill="#4c566a" stroke="#4c566a" stroke-width="1.2" points="206.03,-272.74 214.05,-275.49 209.49,-268.34 206.03,-272.74"/>
</g>
<!-- postgres -->
<g id="node3" class="node">
<title>postgres</title>
<path fill="#f3efff" stroke="#2f3a45" stroke-width="1.4" d="M573.23,-355.07C573.23,-355.07 444.32,-355.07 444.32,-355.07 438.32,-355.07 432.32,-349.07 432.32,-343.07 432.32,-343.07 432.32,-288.93 432.32,-288.93 432.32,-282.93 438.32,-276.93 444.32,-276.93 444.32,-276.93 573.23,-276.93 573.23,-276.93 579.23,-276.93 585.23,-282.93 585.23,-288.93 585.23,-288.93 585.23,-343.07 585.23,-343.07 585.23,-349.07 579.23,-355.07 573.23,-355.07"/>
<text text-anchor="middle" x="508.77" y="-336.48" font-family="Helvetica,sans-Serif" font-size="12.00">Postgres Working Tables</text>
<text text-anchor="middle" x="508.77" y="-323.73" font-family="Helvetica,sans-Serif" font-size="12.00">normalized products</text>
<text text-anchor="middle" x="508.77" y="-310.98" font-family="Helvetica,sans-Serif" font-size="12.00">exact keys</text>
<text text-anchor="middle" x="508.77" y="-298.23" font-family="Helvetica,sans-Serif" font-size="12.00">retrieval helper columns</text>
<text text-anchor="middle" x="508.77" y="-285.48" font-family="Helvetica,sans-Serif" font-size="12.00">embedding vectors</text>
</g>
<!-- normalize&#45;&gt;postgres -->
<g id="edge2" class="edge">
<title>normalize&#45;&gt;postgres</title>
<path fill="none" stroke="#4c566a" stroke-width="1.2" d="M361.67,-316C381.32,-316 402.44,-316 422.34,-316"/>
<polygon fill="#4c566a" stroke="#4c566a" stroke-width="1.2" points="422.18,-318.8 430.18,-316 422.18,-313.2 422.18,-318.8"/>
</g>
<!-- exact -->
<g id="node4" class="node">
<title>exact</title>
<path fill="#fff4df" stroke="#2f3a45" stroke-width="1.4" d="M793.51,-568.08C793.51,-568.08 672.85,-568.08 672.85,-568.08 666.85,-568.08 660.85,-562.08 660.85,-556.08 660.85,-556.08 660.85,-501.93 660.85,-501.93 660.85,-495.93 666.85,-489.93 672.85,-489.93 672.85,-489.93 793.51,-489.93 793.51,-489.93 799.51,-489.93 805.51,-495.93 805.51,-501.93 805.51,-501.93 805.51,-556.08 805.51,-556.08 805.51,-562.08 799.51,-568.08 793.51,-568.08"/>
<text text-anchor="middle" x="733.18" y="-549.48" font-family="Helvetica,sans-Serif" font-size="12.00">2a. Exact Retrieval</text>
<text text-anchor="middle" x="733.18" y="-536.73" font-family="Helvetica,sans-Serif" font-size="12.00">EAN/GTIN/UPC</text>
<text text-anchor="middle" x="733.18" y="-523.98" font-family="Helvetica,sans-Serif" font-size="12.00">ASIN</text>
<text text-anchor="middle" x="733.18" y="-511.23" font-family="Helvetica,sans-Serif" font-size="12.00">same&#45;retailer SKU</text>
<text text-anchor="middle" x="733.18" y="-498.48" font-family="Helvetica,sans-Serif" font-size="12.00">trusted canonical URLs</text>
</g>
<!-- postgres&#45;&gt;exact -->
<g id="edge3" class="edge">
<title>postgres&#45;&gt;exact</title>
<path fill="none" stroke="#4c566a" stroke-width="1.2" d="M537.29,-355.57C561.81,-389.07 599.96,-437.06 640.23,-472 645,-476.14 650.09,-480.17 655.36,-484.05"/>
<polygon fill="#4c566a" stroke="#4c566a" stroke-width="1.2" points="653.55,-486.2 661.69,-488.57 656.8,-481.64 653.55,-486.2"/>
</g>
<!-- lexical -->
<g id="node5" class="node">
<title>lexical</title>
<path fill="#fff4df" stroke="#2f3a45" stroke-width="1.4" d="M808.14,-264.32C808.14,-264.32 658.23,-264.32 658.23,-264.32 652.23,-264.32 646.23,-258.32 646.23,-252.32 646.23,-252.32 646.23,-223.68 646.23,-223.68 646.23,-217.68 652.23,-211.68 658.23,-211.68 658.23,-211.68 808.14,-211.68 808.14,-211.68 814.14,-211.68 820.14,-217.68 820.14,-223.68 820.14,-223.68 820.14,-252.32 820.14,-252.32 820.14,-258.32 814.14,-264.32 808.14,-264.32"/>
<text text-anchor="middle" x="733.18" y="-245.72" font-family="Helvetica,sans-Serif" font-size="12.00">2b. Lexical Retrieval</text>
<text text-anchor="middle" x="733.18" y="-232.97" font-family="Helvetica,sans-Serif" font-size="12.00">brand&#45;aware Postgres FTS</text>
<text text-anchor="middle" x="733.18" y="-220.22" font-family="Helvetica,sans-Serif" font-size="12.00">weighted title/category/specs</text>
</g>
<!-- postgres&#45;&gt;lexical -->
<g id="edge4" class="edge">
<title>postgres&#45;&gt;lexical</title>
<path fill="none" stroke="#4c566a" stroke-width="1.2" d="M585.69,-289.37C605.34,-282.49 626.62,-275.02 646.71,-267.98"/>
<polygon fill="#4c566a" stroke="#4c566a" stroke-width="1.2" points="647.52,-270.66 654.14,-265.37 645.66,-265.38 647.52,-270.66"/>
</g>
<!-- trigram -->
<g id="node6" class="node">
<title>trigram</title>
<path fill="#fff4df" stroke="#2f3a45" stroke-width="1.4" d="M814.14,-454.32C814.14,-454.32 652.23,-454.32 652.23,-454.32 646.23,-454.32 640.23,-448.32 640.23,-442.32 640.23,-442.32 640.23,-413.68 640.23,-413.68 640.23,-407.68 646.23,-401.68 652.23,-401.68 652.23,-401.68 814.14,-401.68 814.14,-401.68 820.14,-401.68 826.14,-407.68 826.14,-413.68 826.14,-413.68 826.14,-442.32 826.14,-442.32 826.14,-448.32 820.14,-454.32 814.14,-454.32"/>
<text text-anchor="middle" x="733.18" y="-435.73" font-family="Helvetica,sans-Serif" font-size="12.00">2c. Trigram Retrieval</text>
<text text-anchor="middle" x="733.18" y="-422.98" font-family="Helvetica,sans-Serif" font-size="12.00">pg_trgm title similarity</text>
<text text-anchor="middle" x="733.18" y="-410.23" font-family="Helvetica,sans-Serif" font-size="12.00">inside normalized brand blocks</text>
</g>
<!-- postgres&#45;&gt;trigram -->
<g id="edge5" class="edge">
<title>postgres&#45;&gt;trigram</title>
<path fill="none" stroke="#4c566a" stroke-width="1.2" d="M584.4,-355.46C602.6,-364.93 622.07,-374.92 640.23,-384 648.87,-388.32 658,-392.79 667.03,-397.16"/>
<polygon fill="#4c566a" stroke="#4c566a" stroke-width="1.2" points="665.57,-399.57 673.99,-400.52 668,-394.52 665.57,-399.57"/>
</g>
<!-- vector -->
<g id="node7" class="node">
<title>vector</title>
<path fill="#fff4df" stroke="#2f3a45" stroke-width="1.4" d="M804.76,-365.7C804.76,-365.7 661.6,-365.7 661.6,-365.7 655.6,-365.7 649.6,-359.7 649.6,-353.7 649.6,-353.7 649.6,-312.3 649.6,-312.3 649.6,-306.3 655.6,-300.3 661.6,-300.3 661.6,-300.3 804.76,-300.3 804.76,-300.3 810.76,-300.3 816.76,-306.3 816.76,-312.3 816.76,-312.3 816.76,-353.7 816.76,-353.7 816.76,-359.7 810.76,-365.7 804.76,-365.7"/>
<text text-anchor="middle" x="733.18" y="-347.1" font-family="Helvetica,sans-Serif" font-size="12.00">2d. Evidence&#45;Gated Vector</text>
<text text-anchor="middle" x="733.18" y="-334.35" font-family="Helvetica,sans-Serif" font-size="12.00">pgvector cosine search</text>
<text text-anchor="middle" x="733.18" y="-321.6" font-family="Helvetica,sans-Serif" font-size="12.00">only rows with cheap signal</text>
<text text-anchor="middle" x="733.18" y="-308.85" font-family="Helvetica,sans-Serif" font-size="12.00">enter vector fanout</text>
</g>
<!-- postgres&#45;&gt;vector -->
<g id="edge6" class="edge">
<title>postgres&#45;&gt;vector</title>
<path fill="none" stroke="#4c566a" stroke-width="1.2" d="M585.69,-321.8C603.16,-323.14 621.92,-324.57 640,-325.95"/>
<polygon fill="#4c566a" stroke="#4c566a" stroke-width="1.2" points="639.37,-328.71 647.56,-326.53 639.8,-323.13 639.37,-328.71"/>
</g>
<!-- pair_blocks -->
<g id="node8" class="node">
<title>pair_blocks</title>
<path fill="#fff9e8" stroke="#2f3a45" stroke-width="1.4" d="M1027.3,-454.32C1027.3,-454.32 893.14,-454.32 893.14,-454.32 887.14,-454.32 881.14,-448.32 881.14,-442.32 881.14,-442.32 881.14,-413.68 881.14,-413.68 881.14,-407.68 887.14,-401.68 893.14,-401.68 893.14,-401.68 1027.3,-401.68 1027.3,-401.68 1033.3,-401.68 1039.3,-407.68 1039.3,-413.68 1039.3,-413.68 1039.3,-442.32 1039.3,-442.32 1039.3,-448.32 1033.3,-454.32 1027.3,-454.32"/>
<text text-anchor="middle" x="960.22" y="-435.73" font-family="Helvetica,sans-Serif" font-size="12.00">Candidate Pair Evidence</text>
<text text-anchor="middle" x="960.22" y="-422.98" font-family="Helvetica,sans-Serif" font-size="12.00">exact:* | lexical:fts</text>
<text text-anchor="middle" x="960.22" y="-410.23" font-family="Helvetica,sans-Serif" font-size="12.00">trigram:title | vector:cosine</text>
</g>
<!-- exact&#45;&gt;pair_blocks -->
<g id="edge7" class="edge">
<title>exact&#45;&gt;pair_blocks</title>
<path fill="none" stroke="#4c566a" stroke-width="1.2" d="M806.01,-496.77C833.16,-484.58 863.98,-470.75 890.81,-458.7"/>
<polygon fill="#4c566a" stroke="#4c566a" stroke-width="1.2" points="891.94,-461.26 898.09,-455.43 889.65,-456.16 891.94,-461.26"/>
</g>
<!-- lexical&#45;&gt;pair_blocks -->
<g id="edge8" class="edge">
<title>lexical&#45;&gt;pair_blocks</title>
<path fill="none" stroke="#4c566a" stroke-width="1.2" d="M798.36,-264.75C808.04,-269.89 817.62,-275.67 826.14,-282 869.29,-314.06 909.48,-361.58 934.17,-393.62"/>
<polygon fill="#4c566a" stroke="#4c566a" stroke-width="1.2" points="931.93,-395.3 939,-399.97 936.38,-391.91 931.93,-395.3"/>
</g>
<!-- trigram&#45;&gt;pair_blocks -->
<g id="edge9" class="edge">
<title>trigram&#45;&gt;pair_blocks</title>
<path fill="none" stroke="#4c566a" stroke-width="1.2" d="M826.36,-428C841.2,-428 856.52,-428 871.26,-428"/>
<polygon fill="#4c566a" stroke="#4c566a" stroke-width="1.2" points="871.03,-430.8 879.03,-428 871.03,-425.2 871.03,-430.8"/>
</g>
<!-- vector&#45;&gt;pair_blocks -->
<g id="edge10" class="edge">
<title>vector&#45;&gt;pair_blocks</title>
<path fill="none" stroke="#4c566a" stroke-width="1.2" d="M812.58,-366.09C836.76,-376.3 863.26,-387.49 887.01,-397.52"/>
<polygon fill="#4c566a" stroke="#4c566a" stroke-width="1.2" points="885.83,-400.06 894.29,-400.59 888.01,-394.9 885.83,-400.06"/>
</g>
<!-- semantic -->
<g id="node9" class="node">
<title>semantic</title>
<path fill="#fceff5" stroke="#2f3a45" stroke-width="1.4" d="M1348.96,-540.7C1348.96,-540.7 1187.8,-540.7 1187.8,-540.7 1181.8,-540.7 1175.8,-534.7 1175.8,-528.7 1175.8,-528.7 1175.8,-487.3 1175.8,-487.3 1175.8,-481.3 1181.8,-475.3 1187.8,-475.3 1187.8,-475.3 1348.96,-475.3 1348.96,-475.3 1354.96,-475.3 1360.96,-481.3 1360.96,-487.3 1360.96,-487.3 1360.96,-528.7 1360.96,-528.7 1360.96,-534.7 1354.96,-540.7 1348.96,-540.7"/>
<text text-anchor="middle" x="1268.38" y="-522.1" font-family="Helvetica,sans-Serif" font-size="12.00">3. Dense Semantic Similarity</text>
<text text-anchor="middle" x="1268.38" y="-509.35" font-family="Helvetica,sans-Serif" font-size="12.00">embed candidate&#45;pair products</text>
<text text-anchor="middle" x="1268.38" y="-496.6" font-family="Helvetica,sans-Serif" font-size="12.00">compute pairwise cosine</text>
<text text-anchor="middle" x="1268.38" y="-483.85" font-family="Helvetica,sans-Serif" font-size="12.00">semantic_sim</text>
</g>
<!-- pair_blocks&#45;&gt;semantic -->
<g id="edge11" class="edge">
<title>pair_blocks&#45;&gt;semantic</title>
<path fill="none" stroke="#4c566a" stroke-width="1.2" d="M1039.53,-448.93C1048.55,-451.33 1057.63,-453.72 1066.3,-456 1098.76,-464.52 1134.19,-473.72 1166.14,-481.98"/>
<polygon fill="#4c566a" stroke="#4c566a" stroke-width="1.2" points="1165.3,-484.65 1173.74,-483.94 1166.7,-479.23 1165.3,-484.65"/>
<text text-anchor="middle" x="1107.55" y="-477.9" font-family="Helvetica,sans-Serif" font-size="10.00">candidate products</text>
</g>
<!-- features -->
<g id="node10" class="node">
<title>features</title>
<path fill="#edf7f7" stroke="#2f3a45" stroke-width="1.4" d="M1667.62,-495.07C1667.62,-495.07 1487.71,-495.07 1487.71,-495.07 1481.71,-495.07 1475.71,-489.07 1475.71,-483.07 1475.71,-483.07 1475.71,-428.93 1475.71,-428.93 1475.71,-422.93 1481.71,-416.93 1487.71,-416.93 1487.71,-416.93 1667.62,-416.93 1667.62,-416.93 1673.62,-416.93 1679.62,-422.93 1679.62,-428.93 1679.62,-428.93 1679.62,-483.07 1679.62,-483.07 1679.62,-489.07 1673.62,-495.07 1667.62,-495.07"/>
<text text-anchor="middle" x="1577.66" y="-476.48" font-family="Helvetica,sans-Serif" font-size="12.00">4. Pairwise Feature Contract</text>
<text text-anchor="middle" x="1577.66" y="-463.73" font-family="Helvetica,sans-Serif" font-size="12.00">DEFAULT_FEATURE_COLUMNS</text>
<text text-anchor="middle" x="1577.66" y="-450.98" font-family="Helvetica,sans-Serif" font-size="12.00">identifier, lexical, semantic,</text>
<text text-anchor="middle" x="1577.66" y="-438.23" font-family="Helvetica,sans-Serif" font-size="12.00">size/pack/price, variant,</text>
<text text-anchor="middle" x="1577.66" y="-425.48" font-family="Helvetica,sans-Serif" font-size="12.00">kit/form contradiction signals</text>
</g>
<!-- pair_blocks&#45;&gt;features -->
<g id="edge12" class="edge">
<title>pair_blocks&#45;&gt;features</title>
<path fill="none" stroke="#4c566a" stroke-width="1.2" d="M1039.73,-431.41C1120.33,-434.94 1249.41,-440.62 1360.96,-445.75 1395.11,-447.32 1432.29,-449.07 1466.02,-450.68"/>
<polygon fill="#4c566a" stroke="#4c566a" stroke-width="1.2" points="1465.5,-453.45 1473.62,-451.04 1465.77,-447.86 1465.5,-453.45"/>
<text text-anchor="middle" x="1268.38" y="-447.5" font-family="Helvetica,sans-Serif" font-size="10.00">retrieval evidence</text>
</g>
<!-- semantic&#45;&gt;features -->
<g id="edge13" class="edge">
<title>semantic&#45;&gt;features</title>
<path fill="none" stroke="#4c566a" stroke-width="1.2" d="M1361.16,-492.47C1394.06,-486.9 1431.49,-480.57 1465.83,-474.76"/>
<polygon fill="#4c566a" stroke="#4c566a" stroke-width="1.2" points="1466.22,-477.53 1473.64,-473.43 1465.28,-472.01 1466.22,-477.53"/>
<text text-anchor="middle" x="1418.33" y="-488.41" font-family="Helvetica,sans-Serif" font-size="10.00">semantic_sim</text>
</g>
<!-- rules -->
<g id="node11" class="node">
<title>rules</title>
<path fill="#fff0ec" stroke="#2f3a45" stroke-width="1.4" d="M1865.78,-622.45C1865.78,-622.45 1769.12,-622.45 1769.12,-622.45 1763.12,-622.45 1757.12,-616.45 1757.12,-610.45 1757.12,-610.45 1757.12,-543.55 1757.12,-543.55 1757.12,-537.55 1763.12,-531.55 1769.12,-531.55 1769.12,-531.55 1865.78,-531.55 1865.78,-531.55 1871.78,-531.55 1877.78,-537.55 1877.78,-543.55 1877.78,-543.55 1877.78,-610.45 1877.78,-610.45 1877.78,-616.45 1871.78,-622.45 1865.78,-622.45"/>
<text text-anchor="middle" x="1817.45" y="-603.85" font-family="Helvetica,sans-Serif" font-size="12.00">5. Rule Chain</text>
<text text-anchor="middle" x="1817.45" y="-591.1" font-family="Helvetica,sans-Serif" font-size="12.00">CERTAIN_BLOCK</text>
<text text-anchor="middle" x="1817.45" y="-578.35" font-family="Helvetica,sans-Serif" font-size="12.00">CERTAIN_MATCH</text>
<text text-anchor="middle" x="1817.45" y="-565.6" font-family="Helvetica,sans-Serif" font-size="12.00">STRONG_MATCH</text>
<text text-anchor="middle" x="1817.45" y="-552.85" font-family="Helvetica,sans-Serif" font-size="12.00">LIKELY_MATCH</text>
<text text-anchor="middle" x="1817.45" y="-540.1" font-family="Helvetica,sans-Serif" font-size="12.00">UNCERTAIN</text>
</g>
<!-- features&#45;&gt;rules -->
<g id="edge14" class="edge">
<title>features&#45;&gt;rules</title>
<path fill="none" stroke="#4c566a" stroke-width="1.2" d="M1656.2,-495.45C1685.8,-510.51 1719.3,-527.57 1748,-542.17"/>
<polygon fill="#4c566a" stroke="#4c566a" stroke-width="1.2" points="1746.72,-544.66 1755.12,-545.79 1749.26,-539.67 1746.72,-544.66"/>
</g>
<!-- ml -->
<g id="node12" class="node">
<title>ml</title>
<polygon fill="#e8f7ff" stroke="#2f3a45" stroke-width="1.4" points="1895.4,-380.7 1739.49,-380.7 1739.49,-376.7 1735.49,-376.7 1735.49,-372.7 1739.49,-372.7 1739.49,-323.3 1735.49,-323.3 1735.49,-319.3 1739.49,-319.3 1739.49,-315.3 1895.4,-315.3 1895.4,-380.7"/>
<polyline fill="none" stroke="#2f3a45" stroke-width="1.4" points="1739.49,-376.7 1743.49,-376.7 1743.49,-372.7 1739.49,-372.7"/>
<polyline fill="none" stroke="#2f3a45" stroke-width="1.4" points="1739.49,-323.3 1743.49,-323.3 1743.49,-319.3 1739.49,-319.3"/>
<text text-anchor="middle" x="1817.45" y="-362.1" font-family="Helvetica,sans-Serif" font-size="12.00">Calibrated Logistic Model</text>
<text text-anchor="middle" x="1817.45" y="-349.35" font-family="Helvetica,sans-Serif" font-size="12.00">models/final_submission/</text>
<text text-anchor="middle" x="1817.45" y="-336.6" font-family="Helvetica,sans-Serif" font-size="12.00">cartsy_logreg.joblib</text>
<text text-anchor="middle" x="1817.45" y="-323.85" font-family="Helvetica,sans-Serif" font-size="12.00">ml_score + threshold</text>
</g>
<!-- features&#45;&gt;ml -->
<g id="edge15" class="edge">
<title>features&#45;&gt;ml</title>
<path fill="none" stroke="#4c566a" stroke-width="1.2" d="M1665.52,-416.55C1688.12,-406.28 1712.4,-395.26 1734.73,-385.12"/>
<polygon fill="#4c566a" stroke="#4c566a" stroke-width="1.2" points="1735.73,-387.74 1741.86,-381.88 1733.41,-382.64 1735.73,-387.74"/>
</g>
<!-- evidence -->
<g id="node13" class="node">
<title>evidence</title>
<path fill="#edf7f7" stroke="#2f3a45" stroke-width="1.4" d="M1888.28,-495.07C1888.28,-495.07 1746.62,-495.07 1746.62,-495.07 1740.62,-495.07 1734.62,-489.07 1734.62,-483.07 1734.62,-483.07 1734.62,-428.93 1734.62,-428.93 1734.62,-422.93 1740.62,-416.93 1746.62,-416.93 1746.62,-416.93 1888.28,-416.93 1888.28,-416.93 1894.28,-416.93 1900.28,-422.93 1900.28,-428.93 1900.28,-428.93 1900.28,-483.07 1900.28,-483.07 1900.28,-489.07 1894.28,-495.07 1888.28,-495.07"/>
<text text-anchor="middle" x="1817.45" y="-476.48" font-family="Helvetica,sans-Serif" font-size="12.00">Evidence Score</text>
<text text-anchor="middle" x="1817.45" y="-463.73" font-family="Helvetica,sans-Serif" font-size="12.00">multi&#45;signal confidence</text>
<text text-anchor="middle" x="1817.45" y="-450.98" font-family="Helvetica,sans-Serif" font-size="12.00">exact + lexical + trigram</text>
<text text-anchor="middle" x="1817.45" y="-438.23" font-family="Helvetica,sans-Serif" font-size="12.00">semantic + rule features</text>
<text text-anchor="middle" x="1817.45" y="-425.48" font-family="Helvetica,sans-Serif" font-size="12.00">penalized by contradictions</text>
</g>
<!-- features&#45;&gt;evidence -->
<g id="edge16" class="edge">
<title>features&#45;&gt;evidence</title>
<path fill="none" stroke="#4c566a" stroke-width="1.2" d="M1679.85,-456C1694.78,-456 1710.1,-456 1724.82,-456"/>
<polygon fill="#4c566a" stroke="#4c566a" stroke-width="1.2" points="1724.58,-458.8 1732.58,-456 1724.58,-453.2 1724.58,-458.8"/>
</g>
<!-- decision -->
<g id="node14" class="node">
<title>decision</title>
<path fill="#ffe8cc" stroke="#2f3a45" stroke-width="1.4" d="M2121.52,-623.42C2121.52,-623.42 1965.95,-543.48 1965.95,-543.48 1960.62,-540.74 1960.62,-535.26 1965.95,-532.52 1965.95,-532.52 2121.52,-452.58 2121.52,-452.58 2126.85,-449.84 2137.53,-449.84 2142.86,-452.58 2142.86,-452.58 2298.43,-532.52 2298.43,-532.52 2303.76,-535.26 2303.76,-540.74 2298.43,-543.48 2298.43,-543.48 2142.86,-623.42 2142.86,-623.42 2137.53,-626.16 2126.85,-626.16 2121.52,-623.42"/>
<text text-anchor="middle" x="2132.19" y="-564.85" font-family="Helvetica,sans-Serif" font-size="12.00">Merge Policy</text>
<text text-anchor="middle" x="2132.19" y="-552.1" font-family="Helvetica,sans-Serif" font-size="12.00">hard blocks stop merges</text>
<text text-anchor="middle" x="2132.19" y="-539.35" font-family="Helvetica,sans-Serif" font-size="12.00">certain exacts may fast&#45;path</text>
<text text-anchor="middle" x="2132.19" y="-526.6" font-family="Helvetica,sans-Serif" font-size="12.00">otherwise require:</text>
<text text-anchor="middle" x="2132.19" y="-513.85" font-family="Helvetica,sans-Serif" font-size="12.00">ml_score &gt;= threshold</text>
<text text-anchor="middle" x="2132.19" y="-501.1" font-family="Helvetica,sans-Serif" font-size="12.00">AND evidence_score &gt;= floor</text>
</g>
<!-- rules&#45;&gt;decision -->
<g id="edge17" class="edge">
<title>rules&#45;&gt;decision</title>
<path fill="none" stroke="#4c566a" stroke-width="1.2" d="M1878.01,-569.57C1906.97,-565.96 1943.23,-561.44 1979.18,-556.96"/>
<polygon fill="#4c566a" stroke="#4c566a" stroke-width="1.2" points="1979.41,-559.75 1987.01,-555.98 1978.72,-554.19 1979.41,-559.75"/>
</g>
<!-- ml&#45;&gt;decision -->
<g id="edge18" class="edge">
<title>ml&#45;&gt;decision</title>
<path fill="none" stroke="#4c566a" stroke-width="1.2" d="M1872.93,-381.1C1919.53,-409.41 1987.53,-450.72 2042.06,-483.85"/>
<polygon fill="#4c566a" stroke="#4c566a" stroke-width="1.2" points="2040.5,-486.18 2048.79,-487.94 2043.41,-481.4 2040.5,-486.18"/>
</g>
<!-- evidence&#45;&gt;decision -->
<g id="edge19" class="edge">
<title>evidence&#45;&gt;decision</title>
<path fill="none" stroke="#4c566a" stroke-width="1.2" d="M1900.62,-477.54C1932.43,-485.89 1969.58,-495.63 2004.65,-504.82"/>
<polygon fill="#4c566a" stroke="#4c566a" stroke-width="1.2" points="2003.79,-507.49 2012.24,-506.81 2005.21,-502.07 2003.79,-507.49"/>
</g>
<!-- clustering -->
<g id="node15" class="node">
<title>clustering</title>
<path fill="#edf1ff" stroke="#2f3a45" stroke-width="1.4" d="M2645.76,-701.7C2645.76,-701.7 2474.1,-701.7 2474.1,-701.7 2468.1,-701.7 2462.1,-695.7 2462.1,-689.7 2462.1,-689.7 2462.1,-648.3 2462.1,-648.3 2462.1,-642.3 2468.1,-636.3 2474.1,-636.3 2474.1,-636.3 2645.76,-636.3 2645.76,-636.3 2651.76,-636.3 2657.76,-642.3 2657.76,-648.3 2657.76,-648.3 2657.76,-689.7 2657.76,-689.7 2657.76,-695.7 2651.76,-701.7 2645.76,-701.7"/>
<text text-anchor="middle" x="2559.93" y="-683.1" font-family="Helvetica,sans-Serif" font-size="12.00">6. Cluster Accepted Edges</text>
<text text-anchor="middle" x="2559.93" y="-670.35" font-family="Helvetica,sans-Serif" font-size="12.00">union connected components</text>
<text text-anchor="middle" x="2559.93" y="-657.6" font-family="Helvetica,sans-Serif" font-size="12.00">cluster&#45;level contradiction guards</text>
<text text-anchor="middle" x="2559.93" y="-644.85" font-family="Helvetica,sans-Serif" font-size="12.00">stable SHA1 dedupe_id</text>
</g>
<!-- decision&#45;&gt;clustering -->
<g id="edge20" class="edge">
<title>decision&#45;&gt;clustering</title>
<path fill="none" stroke="#4c566a" stroke-width="1.2" d="M2243.66,-571.99C2308,-591.79 2388.73,-616.63 2452.39,-636.22"/>
<polygon fill="#4c566a" stroke="#4c566a" stroke-width="1.2" points="2451.45,-638.86 2459.92,-638.53 2453.1,-633.51 2451.45,-638.86"/>
<text text-anchor="middle" x="2385.6" y="-632.04" font-family="Helvetica,sans-Serif" font-size="10.00">accepted merge edges</text>
</g>
<!-- artifacts -->
<g id="node16" class="node">
<title>artifacts</title>
<path fill="#f7f7f7" stroke="#2f3a45" stroke-width="1.4" d="M2876.17,-720.83C2876.17,-720.83 2724.76,-720.83 2724.76,-720.83 2718.76,-720.83 2712.76,-714.83 2712.76,-708.83 2712.76,-708.83 2712.76,-629.17 2712.76,-629.17 2712.76,-623.17 2718.76,-617.17 2724.76,-617.17 2724.76,-617.17 2876.17,-617.17 2876.17,-617.17 2882.17,-617.17 2888.17,-623.17 2888.17,-629.17 2888.17,-629.17 2888.17,-708.83 2888.17,-708.83 2888.17,-714.83 2882.17,-720.83 2876.17,-720.83"/>
<text text-anchor="middle" x="2800.46" y="-702.23" font-family="Helvetica,sans-Serif" font-size="12.00">Run Artifacts</text>
<text text-anchor="middle" x="2800.46" y="-689.48" font-family="Helvetica,sans-Serif" font-size="12.00">normalized_products.parquet</text>
<text text-anchor="middle" x="2800.46" y="-676.73" font-family="Helvetica,sans-Serif" font-size="12.00">candidate_pairs.parquet</text>
<text text-anchor="middle" x="2800.46" y="-663.98" font-family="Helvetica,sans-Serif" font-size="12.00">product_assignments.csv</text>
<text text-anchor="middle" x="2800.46" y="-651.23" font-family="Helvetica,sans-Serif" font-size="12.00">dedupe_groups.jsonl</text>
<text text-anchor="middle" x="2800.46" y="-638.48" font-family="Helvetica,sans-Serif" font-size="12.00">near_miss_pairs.csv</text>
<text text-anchor="middle" x="2800.46" y="-625.73" font-family="Helvetica,sans-Serif" font-size="12.00">summary_report.json</text>
</g>
<!-- clustering&#45;&gt;artifacts -->
<g id="edge21" class="edge">
<title>clustering&#45;&gt;artifacts</title>
<path fill="none" stroke="#4c566a" stroke-width="1.2" d="M2657.95,-669C2672.76,-669 2688.05,-669 2702.86,-669"/>
<polygon fill="#4c566a" stroke="#4c566a" stroke-width="1.2" points="2702.69,-671.8 2710.69,-669 2702.69,-666.2 2702.69,-671.8"/>
</g>
<!-- query -->
<g id="node17" class="node">
<title>query</title>
<path fill="#f2f2f2" stroke="#2f3a45" stroke-width="1.4" d="M3115.58,-752.7C3115.58,-752.7 2955.17,-752.7 2955.17,-752.7 2949.17,-752.7 2943.17,-746.7 2943.17,-740.7 2943.17,-740.7 2943.17,-699.3 2943.17,-699.3 2943.17,-693.3 2949.17,-687.3 2955.17,-687.3 2955.17,-687.3 3115.58,-687.3 3115.58,-687.3 3121.58,-687.3 3127.58,-693.3 3127.58,-699.3 3127.58,-699.3 3127.58,-740.7 3127.58,-740.7 3127.58,-746.7 3121.58,-752.7 3115.58,-752.7"/>
<text text-anchor="middle" x="3035.37" y="-734.1" font-family="Helvetica,sans-Serif" font-size="12.00">Query Surfaces</text>
<text text-anchor="middle" x="3035.37" y="-721.35" font-family="Helvetica,sans-Serif" font-size="12.00">search / group / explain</text>
<text text-anchor="middle" x="3035.37" y="-708.6" font-family="Helvetica,sans-Serif" font-size="12.00">index&#45;artifacts / search&#45;artifacts</text>
<text text-anchor="middle" x="3035.37" y="-695.85" font-family="Helvetica,sans-Serif" font-size="12.00">optional FastAPI server</text>
</g>
<!-- artifacts&#45;&gt;query -->
<g id="edge22" class="edge">
<title>artifacts&#45;&gt;query</title>
<path fill="none" stroke="#4c566a" stroke-width="1.2" d="M2888.52,-688.06C2903.18,-691.27 2918.51,-694.63 2933.48,-697.91"/>
<polygon fill="#4c566a" stroke="#4c566a" stroke-width="1.2" points="2932.56,-700.57 2940.98,-699.55 2933.76,-695.1 2932.56,-700.57"/>
</g>
<!-- evaluation -->
<g id="node18" class="node">
<title>evaluation</title>
<path fill="#f0f8ff" stroke="#2f3a45" stroke-width="1.4" d="M3105.45,-651.7C3105.45,-651.7 2965.29,-651.7 2965.29,-651.7 2959.29,-651.7 2953.29,-645.7 2953.29,-639.7 2953.29,-639.7 2953.29,-598.3 2953.29,-598.3 2953.29,-592.3 2959.29,-586.3 2965.29,-586.3 2965.29,-586.3 3105.45,-586.3 3105.45,-586.3 3111.45,-586.3 3117.45,-592.3 3117.45,-598.3 3117.45,-598.3 3117.45,-639.7 3117.45,-639.7 3117.45,-645.7 3111.45,-651.7 3105.45,-651.7"/>
<text text-anchor="middle" x="3035.37" y="-633.1" font-family="Helvetica,sans-Serif" font-size="12.00">Post&#45;Run Evaluation</text>
<text text-anchor="middle" x="3035.37" y="-620.35" font-family="Helvetica,sans-Serif" font-size="12.00">evaluate&#45;run against labels</text>
<text text-anchor="middle" x="3035.37" y="-607.6" font-family="Helvetica,sans-Serif" font-size="12.00">precision/recall/F1</text>
<text text-anchor="middle" x="3035.37" y="-594.85" font-family="Helvetica,sans-Serif" font-size="12.00">risk slices + gates</text>
</g>
<!-- artifacts&#45;&gt;evaluation -->
<g id="edge23" class="edge">
<title>artifacts&#45;&gt;evaluation</title>
<path fill="none" stroke="#4c566a" stroke-width="1.2" d="M2888.52,-650.31C2906.46,-646.46 2925.39,-642.4 2943.46,-638.52"/>
<polygon fill="#4c566a" stroke="#4c566a" stroke-width="1.2" points="2943.81,-641.31 2951.04,-636.89 2942.63,-635.83 2943.81,-641.31"/>
</g>
<!-- cache -->
<g id="node19" class="node">
<title>cache</title>
<polygon fill="#eef0f2" stroke="#2f3a45" stroke-width="1.4" points="128.91,-560.08 125.91,-564.08 104.91,-564.08 101.91,-560.08 0,-560.08 0,-481.93 128.91,-481.93 128.91,-560.08"/>
<text text-anchor="middle" x="64.45" y="-541.48" font-family="Helvetica,sans-Serif" font-size="12.00">Caching</text>
<text text-anchor="middle" x="64.45" y="-528.73" font-family="Helvetica,sans-Serif" font-size="12.00">normalization</text>
<text text-anchor="middle" x="64.45" y="-515.98" font-family="Helvetica,sans-Serif" font-size="12.00">per&#45;layer retrieval</text>
<text text-anchor="middle" x="64.45" y="-503.23" font-family="Helvetica,sans-Serif" font-size="12.00">scoring + clustering</text>
<text text-anchor="middle" x="64.45" y="-490.48" font-family="Helvetica,sans-Serif" font-size="12.00">product embeddings</text>
</g>
<!-- cache&#45;&gt;normalize -->
<g id="edge28" class="edge">
<title>cache&#45;&gt;normalize</title>
<path fill="none" stroke="#4c566a" stroke-width="1.2" stroke-dasharray="1,5" d="M84.21,-481.49C100.03,-451.34 125.03,-410.31 155.91,-382 166.51,-372.28 178.8,-363.54 191.44,-355.83"/>
<polygon fill="#4c566a" stroke="#4c566a" stroke-width="1.2" points="192.75,-358.31 198.22,-351.84 189.9,-353.49 192.75,-358.31"/>
</g>
<!-- cache&#45;&gt;exact -->
<g id="edge29" class="edge">
<title>cache&#45;&gt;exact</title>
<path fill="none" stroke="#4c566a" stroke-width="1.2" stroke-dasharray="1,5" d="M129.38,-521.77C251.29,-523.23 516.77,-526.42 651.01,-528.03"/>
<polygon fill="#4c566a" stroke="#4c566a" stroke-width="1.2" points="650.59,-530.82 658.63,-528.12 650.66,-525.22 650.59,-530.82"/>
</g>
<!-- cache&#45;&gt;lexical -->
<g id="edge30" class="edge">
<title>cache&#45;&gt;lexical</title>
<path fill="none" stroke="#4c566a" stroke-width="1.2" stroke-dasharray="1,5" d="M71.21,-481.43C85.47,-389.5 125.55,-165.97 183.91,-122 338.64,-5.44 584.34,-140.36 685.91,-206.09"/>
<polygon fill="#4c566a" stroke="#4c566a" stroke-width="1.2" points="684.09,-208.24 692.32,-210.28 687.15,-203.56 684.09,-208.24"/>
</g>
<!-- cache&#45;&gt;trigram -->
<g id="edge31" class="edge">
<title>cache&#45;&gt;trigram</title>
<path fill="none" stroke="#4c566a" stroke-width="1.2" stroke-dasharray="1,5" d="M129.38,-512.08C245.36,-495.91 491.28,-461.6 630.51,-442.18"/>
<polygon fill="#4c566a" stroke="#4c566a" stroke-width="1.2" points="630.6,-445 638.14,-441.12 629.83,-439.45 630.6,-445"/>
</g>
<!-- cache&#45;&gt;vector -->
<g id="edge32" class="edge">
<title>cache&#45;&gt;vector</title>
<path fill="none" stroke="#4c566a" stroke-width="1.2" stroke-dasharray="1,5" d="M129.18,-490.53C146.68,-482.86 165.81,-475.08 183.91,-469 357.75,-410.57 407.55,-418.42 585.23,-373 602.9,-368.48 621.72,-363.5 639.78,-358.62"/>
<polygon fill="#4c566a" stroke="#4c566a" stroke-width="1.2" points="640.4,-361.35 647.39,-356.56 638.94,-355.95 640.4,-361.35"/>
</g>
<!-- cache&#45;&gt;semantic -->
<g id="edge33" class="edge">
<title>cache&#45;&gt;semantic</title>
<path fill="none" stroke="#4c566a" stroke-width="1.2" stroke-dasharray="1,5" d="M110.45,-560.45C151.56,-592.35 215.54,-632 279.61,-632 279.61,-632 279.61,-632 961.22,-632 1053.92,-632 1151.62,-582.56 1211.05,-546.12"/>
<polygon fill="#4c566a" stroke="#4c566a" stroke-width="1.2" points="1212.31,-548.63 1217.63,-542.03 1209.36,-543.87 1212.31,-548.63"/>
</g>
<!-- cache&#45;&gt;decision -->
<g id="edge34" class="edge">
<title>cache&#45;&gt;decision</title>
<path fill="none" stroke="#4c566a" stroke-width="1.2" stroke-dasharray="1,5" d="M87.49,-560.23C121.23,-614.54 191.18,-706 279.61,-706 279.61,-706 279.61,-706 1818.45,-706 1909.92,-706 2000.43,-649.54 2060.36,-602.09"/>
<polygon fill="#4c566a" stroke="#4c566a" stroke-width="1.2" points="2061.98,-604.38 2066.47,-597.19 2058.48,-600.01 2061.98,-604.38"/>
</g>
<!-- cache&#45;&gt;clustering -->
<g id="edge35" class="edge">
<title>cache&#45;&gt;clustering</title>
<path fill="none" stroke="#4c566a" stroke-width="1.2" stroke-dasharray="1,5" d="M77.52,-560.34C102.47,-632.79 167.01,-780 279.61,-780 279.61,-780 279.61,-780 2133.19,-780 2253.5,-780 2386.93,-737.98 2471.8,-705.65"/>
<polygon fill="#4c566a" stroke="#4c566a" stroke-width="1.2" points="2472.72,-708.29 2479.18,-702.81 2470.71,-703.06 2472.72,-708.29"/>
</g>
<!-- config -->
<g id="node20" class="node">
<title>config</title>
<polygon fill="#f8f0ff" stroke="#2f3a45" stroke-width="1.4" points="371.32,-230.45 183.91,-230.45 183.91,-139.55 377.32,-139.55 377.32,-224.45 371.32,-230.45"/>
<polyline fill="none" stroke="#2f3a45" stroke-width="1.4" points="371.32,-230.45 371.32,-224.45"/>
<polyline fill="none" stroke="#2f3a45" stroke-width="1.4" points="377.32,-224.45 371.32,-224.45"/>
<text text-anchor="middle" x="280.61" y="-211.85" font-family="Helvetica,sans-Serif" font-size="12.00">Runtime Config</text>
<text text-anchor="middle" x="280.61" y="-199.1" font-family="Helvetica,sans-Serif" font-size="12.00">.env</text>
<text text-anchor="middle" x="280.61" y="-186.35" font-family="Helvetica,sans-Serif" font-size="12.00">DATABASE_URL</text>
<text text-anchor="middle" x="280.61" y="-173.6" font-family="Helvetica,sans-Serif" font-size="12.00">embedding backend/dimensions</text>
<text text-anchor="middle" x="280.61" y="-160.85" font-family="Helvetica,sans-Serif" font-size="12.00">retrieval fanout</text>
<text text-anchor="middle" x="280.61" y="-148.1" font-family="Helvetica,sans-Serif" font-size="12.00">model path + thresholds</text>
</g>
<!-- config&#45;&gt;postgres -->
<g id="edge24" class="edge">
<title>config&#45;&gt;postgres</title>
<path fill="none" stroke="#4c566a" stroke-width="1.2" stroke-dasharray="5,2" d="M360.71,-230.82C383.63,-244.09 408.6,-258.55 431.35,-271.73"/>
<polygon fill="#4c566a" stroke="#4c566a" stroke-width="1.2" points="429.72,-274.03 438.05,-275.61 432.53,-269.18 429.72,-274.03"/>
</g>
<!-- config&#45;&gt;vector -->
<g id="edge25" class="edge">
<title>config&#45;&gt;vector</title>
<path fill="none" stroke="#4c566a" stroke-width="1.2" stroke-dasharray="5,2" d="M377.64,-202.57C438.21,-215.07 517.52,-234.07 585.23,-259 612.33,-268.98 640.94,-282.61 665.64,-295.46"/>
<polygon fill="#4c566a" stroke="#4c566a" stroke-width="1.2" points="664.21,-297.87 672.6,-299.12 666.82,-292.92 664.21,-297.87"/>
</g>
<!-- config&#45;&gt;ml -->
<g id="edge26" class="edge">
<title>config&#45;&gt;ml</title>
<path fill="none" stroke="#4c566a" stroke-width="1.2" stroke-dasharray="5,2" d="M377.62,-162.25C417.62,-154.62 464.71,-148 507.77,-148 507.77,-148 507.77,-148 1578.66,-148 1676.55,-148 1755.14,-248.49 1792.61,-307.01"/>
<polygon fill="#4c566a" stroke="#4c566a" stroke-width="1.2" points="1790.02,-308.16 1796.65,-313.44 1794.76,-305.17 1790.02,-308.16"/>
</g>
<!-- config&#45;&gt;decision -->
<g id="edge27" class="edge">
<title>config&#45;&gt;decision</title>
<path fill="none" stroke="#4c566a" stroke-width="1.2" stroke-dasharray="5,2" d="M309.85,-139.27C347.59,-84.49 420.02,0 507.77,0 507.77,0 507.77,0 1818.45,0 2020.97,0 2094.58,-288.45 2119.49,-442.93"/>
<polygon fill="#4c566a" stroke="#4c566a" stroke-width="1.2" points="2116.7,-443.19 2120.71,-450.66 2122.23,-442.32 2116.7,-443.19"/>
</g>
</g>
</svg>
