<?xml version="1.0" encoding="UTF-8" standalone="no"?>
<!DOCTYPE svg PUBLIC "-//W3C//DTD SVG 1.1//EN"
 "http://www.w3.org/Graphics/SVG/1.1/DTD/svg11.dtd">
<!-- Generated by graphviz version 12.2.1 (20241206.2353)
 -->
<!-- Title: TrainingPipeline Pages: 1 -->
<svg width="3490pt" height="381pt"
 viewBox="0.00 0.00 3490.29 381.42" xmlns="http://www.w3.org/2000/svg" xmlns:xlink="http://www.w3.org/1999/xlink">
<g id="graph0" class="graph" transform="scale(1 1) rotate(0) translate(25.2 356.22)">
<title>TrainingPipeline</title>
<polygon fill="white" stroke="none" points="-25.2,25.2 -25.2,-356.22 3465.09,-356.22 3465.09,25.2 -25.2,25.2"/>
<text text-anchor="middle" x="1719.95" y="-313.72" font-family="Helvetica,sans-Serif" font-size="14.00">Cartsy Supervised Pairwise Training Pipeline</text>
<!-- products -->
<g id="node1" class="node">
<title>products</title>
<path fill="#eaf2ff" stroke="#2f3a45" stroke-width="1.4" d="M113.53,-134.28C113.53,-134.28 42.37,-134.28 42.37,-134.28 36.37,-134.28 30.37,-128.28 30.37,-122.28 30.37,-122.28 30.37,-106.38 30.37,-106.38 30.37,-100.38 36.37,-94.38 42.37,-94.38 42.37,-94.38 113.53,-94.38 113.53,-94.38 119.53,-94.38 125.53,-100.38 125.53,-106.38 125.53,-106.38 125.53,-122.28 125.53,-122.28 125.53,-128.28 119.53,-134.28 113.53,-134.28"/>
<text text-anchor="middle" x="77.95" y="-115.67" font-family="Helvetica,sans-Serif" font-size="12.00">Raw Products</text>
<text text-anchor="middle" x="77.95" y="-102.92" font-family="Helvetica,sans-Serif" font-size="12.00">products.csv</text>
</g>
<!-- augment -->
<g id="node3" class="node">
<title>augment</title>
<path fill="#eef7ed" stroke="#2f3a45" stroke-width="1.4" d="M367.57,-153.4C367.57,-153.4 222.91,-153.4 222.91,-153.4 216.91,-153.4 210.91,-147.4 210.91,-141.4 210.91,-141.4 210.91,-87.25 210.91,-87.25 210.91,-81.25 216.91,-75.25 222.91,-75.25 222.91,-75.25 367.57,-75.25 367.57,-75.25 373.57,-75.25 379.57,-81.25 379.57,-87.25 379.57,-87.25 379.57,-141.4 379.57,-141.4 379.57,-147.4 373.57,-153.4 367.57,-153.4"/>
<text text-anchor="middle" x="295.24" y="-134.8" font-family="Helvetica,sans-Serif" font-size="12.00">1. Controlled Augmentation</text>
<text text-anchor="middle" x="295.24" y="-122.05" font-family="Helvetica,sans-Serif" font-size="12.00">positive duplicates preserve</text>
<text text-anchor="middle" x="295.24" y="-109.3" font-family="Helvetica,sans-Serif" font-size="12.00">variant signatures</text>
<text text-anchor="middle" x="295.24" y="-96.55" font-family="Helvetica,sans-Serif" font-size="12.00">hard negatives inject</text>
<text text-anchor="middle" x="295.24" y="-83.8" font-family="Helvetica,sans-Serif" font-size="12.00">weak shared IDs + conflicts</text>
</g>
<!-- products&#45;&gt;augment -->
<g id="edge1" class="edge">
<title>products&#45;&gt;augment</title>
<path fill="none" stroke="#4c566a" stroke-width="1.2" d="M125.93,-114.33C147.97,-114.33 175.05,-114.33 200.99,-114.33"/>
<polygon fill="#4c566a" stroke="#4c566a" stroke-width="1.2" points="200.66,-117.13 208.66,-114.33 200.66,-111.53 200.66,-117.13"/>
</g>
<!-- labels -->
<g id="node2" class="node">
<title>labels</title>
<path fill="#eaf2ff" stroke="#2f3a45" stroke-width="1.4" d="M143.91,-52.65C143.91,-52.65 12,-52.65 12,-52.65 6,-52.65 0,-46.65 0,-40.65 0,-40.65 0,-12 0,-12 0,-6 6,0 12,0 12,0 143.91,0 143.91,0 149.91,0 155.91,-6 155.91,-12 155.91,-12 155.91,-40.65 155.91,-40.65 155.91,-46.65 149.91,-52.65 143.91,-52.65"/>
<text text-anchor="middle" x="77.95" y="-34.05" font-family="Helvetica,sans-Serif" font-size="12.00">Ground Truth Labels</text>
<text text-anchor="middle" x="77.95" y="-21.3" font-family="Helvetica,sans-Serif" font-size="12.00">ground_truth_merged.csv</text>
<text text-anchor="middle" x="77.95" y="-8.55" font-family="Helvetica,sans-Serif" font-size="12.00">source_id &#45;&gt; deduped_id</text>
</g>
<!-- labels&#45;&gt;augment -->
<g id="edge2" class="edge">
<title>labels&#45;&gt;augment</title>
<path fill="none" stroke="#4c566a" stroke-width="1.2" d="M144.42,-53.09C162.55,-60.5 182.58,-68.68 201.93,-76.59"/>
<polygon fill="#4c566a" stroke="#4c566a" stroke-width="1.2" points="200.62,-79.08 209.08,-79.52 202.74,-73.9 200.62,-79.08"/>
</g>
<!-- eval -->
<g id="node15" class="node">
<title>eval</title>
<path fill="#f0f8ff" stroke="#2f3a45" stroke-width="1.4" d="M3427.89,-74.03C3427.89,-74.03 3238.98,-74.03 3238.98,-74.03 3232.98,-74.03 3226.98,-68.03 3226.98,-62.03 3226.98,-62.03 3226.98,-20.62 3226.98,-20.62 3226.98,-14.62 3232.98,-8.62 3238.98,-8.62 3238.98,-8.62 3427.89,-8.62 3427.89,-8.62 3433.89,-8.62 3439.89,-14.62 3439.89,-20.62 3439.89,-20.62 3439.89,-62.03 3439.89,-62.03 3439.89,-68.03 3433.89,-74.03 3427.89,-74.03"/>
<text text-anchor="middle" x="3333.44" y="-55.43" font-family="Helvetica,sans-Serif" font-size="12.00">Post&#45;Run Evaluation</text>
<text text-anchor="middle" x="3333.44" y="-42.68" font-family="Helvetica,sans-Serif" font-size="12.00">evaluate&#45;run on completed artifacts</text>
<text text-anchor="middle" x="3333.44" y="-29.93" font-family="Helvetica,sans-Serif" font-size="12.00">precision/recall/F1</text>
<text text-anchor="middle" x="3333.44" y="-17.18" font-family="Helvetica,sans-Serif" font-size="12.00">vector&#45;only and generic&#45;brand slices</text>
</g>
<!-- labels&#45;&gt;eval -->
<g id="edge19" class="edge">
<title>labels&#45;&gt;eval</title>
<path fill="none" stroke="#4c566a" stroke-width="1.2" stroke-dasharray="5,2" d="M156.16,-23.13C197.17,-21.7 248.44,-20.33 294.24,-20.33 294.24,-20.33 294.24,-20.33 3084.15,-20.33 3127.6,-20.33 3175.16,-23.56 3216.94,-27.48"/>
<polygon fill="#4c566a" stroke="#4c566a" stroke-width="1.2" points="3216.55,-30.26 3224.78,-28.24 3217.08,-24.69 3216.55,-30.26"/>
<text text-anchor="middle" x="1767.95" y="-22.08" font-family="Helvetica,sans-Serif" font-size="10.00">acceptance labels</text>
</g>
<!-- augmented -->
<g id="node4" class="node">
<title>augmented</title>
<path fill="#eef7ed" stroke="#2f3a45" stroke-width="1.4" d="M645.23,-147.03C645.23,-147.03 446.57,-147.03 446.57,-147.03 440.57,-147.03 434.57,-141.03 434.57,-135.03 434.57,-135.03 434.57,-93.62 434.57,-93.62 434.57,-87.62 440.57,-81.62 446.57,-81.62 446.57,-81.62 645.23,-81.62 645.23,-81.62 651.23,-81.62 657.23,-87.62 657.23,-93.62 657.23,-93.62 657.23,-135.03 657.23,-135.03 657.23,-141.03 651.23,-147.03 645.23,-147.03"/>
<text text-anchor="middle" x="545.9" y="-128.42" font-family="Helvetica,sans-Serif" font-size="12.00">Augmented Training Files</text>
<text text-anchor="middle" x="545.9" y="-115.67" font-family="Helvetica,sans-Serif" font-size="12.00">dataset_merged_augmented.csv</text>
<text text-anchor="middle" x="545.9" y="-102.92" font-family="Helvetica,sans-Serif" font-size="12.00">ground_truth_merged_augmented.csv</text>
<text text-anchor="middle" x="545.9" y="-90.17" font-family="Helvetica,sans-Serif" font-size="12.00">augmentation_manifest_merged.csv</text>
</g>
<!-- augment&#45;&gt;augmented -->
<g id="edge3" class="edge">
<title>augment&#45;&gt;augmented</title>
<path fill="none" stroke="#4c566a" stroke-width="1.2" d="M379.73,-114.33C394.22,-114.33 409.54,-114.33 424.78,-114.33"/>
<polygon fill="#4c566a" stroke="#4c566a" stroke-width="1.2" points="424.43,-117.13 432.43,-114.33 424.43,-111.53 424.43,-117.13"/>
</g>
<!-- pair_build -->
<g id="node5" class="node">
<title>pair_build</title>
<path fill="#fff4df" stroke="#2f3a45" stroke-width="1.4" d="M923.64,-233.02C923.64,-233.02 724.23,-233.02 724.23,-233.02 718.23,-233.02 712.23,-227.02 712.23,-221.02 712.23,-221.02 712.23,-179.62 712.23,-179.62 712.23,-173.62 718.23,-167.62 724.23,-167.62 724.23,-167.62 923.64,-167.62 923.64,-167.62 929.64,-167.62 935.64,-173.62 935.64,-179.62 935.64,-179.62 935.64,-221.02 935.64,-221.02 935.64,-227.02 929.64,-233.02 923.64,-233.02"/>
<text text-anchor="middle" x="823.93" y="-214.42" font-family="Helvetica,sans-Serif" font-size="12.00">2. Build Labeled Pairs</text>
<text text-anchor="middle" x="823.93" y="-201.67" font-family="Helvetica,sans-Serif" font-size="12.00">positive same deduped_id</text>
<text text-anchor="middle" x="823.93" y="-188.92" font-family="Helvetica,sans-Serif" font-size="12.00">hard negatives from IDs/brand/random</text>
<text text-anchor="middle" x="823.93" y="-176.17" font-family="Helvetica,sans-Serif" font-size="12.00">caps keep training tractable</text>
</g>
<!-- augmented&#45;&gt;pair_build -->
<g id="edge4" class="edge">
<title>augmented&#45;&gt;pair_build</title>
<path fill="none" stroke="#4c566a" stroke-width="1.2" d="M653.23,-147.45C670.95,-152.97 689.4,-158.72 707.34,-164.31"/>
<polygon fill="#4c566a" stroke="#4c566a" stroke-width="1.2" points="706.46,-166.97 714.93,-166.67 708.12,-161.62 706.46,-166.97"/>
</g>
<!-- embeddings -->
<g id="node7" class="node">
<title>embeddings</title>
<path fill="#fceff5" stroke="#2f3a45" stroke-width="1.4" d="M1147.8,-145.03C1147.8,-145.03 974.64,-145.03 974.64,-145.03 968.64,-145.03 962.64,-139.03 962.64,-133.03 962.64,-133.03 962.64,-91.62 962.64,-91.62 962.64,-85.62 968.64,-79.62 974.64,-79.62 974.64,-79.62 1147.8,-79.62 1147.8,-79.62 1153.8,-79.62 1159.8,-85.62 1159.8,-91.62 1159.8,-91.62 1159.8,-133.03 1159.8,-133.03 1159.8,-139.03 1153.8,-145.03 1147.8,-145.03"/>
<text text-anchor="middle" x="1061.22" y="-126.42" font-family="Helvetica,sans-Serif" font-size="12.00">Optional Embeddings</text>
<text text-anchor="middle" x="1061.22" y="-113.67" font-family="Helvetica,sans-Serif" font-size="12.00">&#45;&#45;use&#45;embeddings</text>
<text text-anchor="middle" x="1061.22" y="-100.92" font-family="Helvetica,sans-Serif" font-size="12.00">reuse product embedding caches</text>
<text text-anchor="middle" x="1061.22" y="-88.17" font-family="Helvetica,sans-Serif" font-size="12.00">compute semantic_sim</text>
</g>
<!-- augmented&#45;&gt;embeddings -->
<g id="edge7" class="edge">
<title>augmented&#45;&gt;embeddings</title>
<path fill="none" stroke="#4c566a" stroke-width="1.2" d="M657.65,-113.89C745.01,-113.55 866.13,-113.08 952.65,-112.74"/>
<polygon fill="#4c566a" stroke="#4c566a" stroke-width="1.2" points="952.42,-115.55 960.41,-112.71 952.4,-109.95 952.42,-115.55"/>
</g>
<!-- block_keys -->
<g id="node6" class="node">
<title>block_keys</title>
<path fill="#fff9e8" stroke="#2f3a45" stroke-width="1.4" d="M1324.71,-308.02C1324.71,-308.02 1198.8,-308.02 1198.8,-308.02 1192.8,-308.02 1186.8,-302.02 1186.8,-296.02 1186.8,-296.02 1186.8,-254.62 1186.8,-254.62 1186.8,-248.62 1192.8,-242.62 1198.8,-242.62 1198.8,-242.62 1324.71,-242.62 1324.71,-242.62 1330.71,-242.62 1336.71,-248.62 1336.71,-254.62 1336.71,-254.62 1336.71,-296.02 1336.71,-296.02 1336.71,-302.02 1330.71,-308.02 1324.71,-308.02"/>
<text text-anchor="middle" x="1261.75" y="-289.43" font-family="Helvetica,sans-Serif" font-size="12.00">Retrieval&#45;Like Evidence</text>
<text text-anchor="middle" x="1261.75" y="-276.68" font-family="Helvetica,sans-Serif" font-size="12.00">exact identifiers</text>
<text text-anchor="middle" x="1261.75" y="-263.93" font-family="Helvetica,sans-Serif" font-size="12.00">FTS/trigram estimates</text>
<text text-anchor="middle" x="1261.75" y="-251.17" font-family="Helvetica,sans-Serif" font-size="12.00">vector cosine block keys</text>
</g>
<!-- pair_build&#45;&gt;block_keys -->
<g id="edge5" class="edge">
<title>pair_build&#45;&gt;block_keys</title>
<path fill="none" stroke="#4c566a" stroke-width="1.2" d="M936.04,-219.44C1011.07,-232.36 1108.54,-249.13 1177.04,-260.92"/>
<polygon fill="#4c566a" stroke="#4c566a" stroke-width="1.2" points="1176.36,-263.64 1184.72,-262.24 1177.31,-258.12 1176.36,-263.64"/>
</g>
<!-- features -->
<g id="node8" class="node">
<title>features</title>
<path fill="#edf7f7" stroke="#2f3a45" stroke-width="1.4" d="M1583.62,-234.4C1583.62,-234.4 1403.71,-234.4 1403.71,-234.4 1397.71,-234.4 1391.71,-228.4 1391.71,-222.4 1391.71,-222.4 1391.71,-168.25 1391.71,-168.25 1391.71,-162.25 1397.71,-156.25 1403.71,-156.25 1403.71,-156.25 1583.62,-156.25 1583.62,-156.25 1589.62,-156.25 1595.62,-162.25 1595.62,-168.25 1595.62,-168.25 1595.62,-222.4 1595.62,-222.4 1595.62,-228.4 1589.62,-234.4 1583.62,-234.4"/>
<text text-anchor="middle" x="1493.66" y="-215.8" font-family="Helvetica,sans-Serif" font-size="12.00">3. Feature Generation</text>
<text text-anchor="middle" x="1493.66" y="-203.05" font-family="Helvetica,sans-Serif" font-size="12.00">DEFAULT_FEATURE_COLUMNS</text>
<text text-anchor="middle" x="1493.66" y="-190.3" font-family="Helvetica,sans-Serif" font-size="12.00">identifier, lexical, semantic,</text>
<text text-anchor="middle" x="1493.66" y="-177.55" font-family="Helvetica,sans-Serif" font-size="12.00">size/pack/price, rule,</text>
<text text-anchor="middle" x="1493.66" y="-164.8" font-family="Helvetica,sans-Serif" font-size="12.00">variant/kit/form contradictions</text>
</g>
<!-- pair_build&#45;&gt;features -->
<g id="edge9" class="edge">
<title>pair_build&#45;&gt;features</title>
<path fill="none" stroke="#4c566a" stroke-width="1.2" d="M935.95,-199.49C1059.55,-198.57 1258.17,-197.08 1381.74,-196.16"/>
<polygon fill="#4c566a" stroke="#4c566a" stroke-width="1.2" points="1381.45,-198.96 1389.43,-196.1 1381.41,-193.36 1381.45,-198.96"/>
<text text-anchor="middle" x="1261.75" y="-199.35" font-family="Helvetica,sans-Serif" font-size="10.00">pair labels</text>
</g>
<!-- block_keys&#45;&gt;features -->
<g id="edge6" class="edge">
<title>block_keys&#45;&gt;features</title>
<path fill="none" stroke="#4c566a" stroke-width="1.2" d="M1337.08,-249.46C1351.56,-244.42 1367.02,-239.04 1382.37,-233.7"/>
<polygon fill="#4c566a" stroke="#4c566a" stroke-width="1.2" points="1383.04,-236.43 1389.68,-231.16 1381.2,-231.15 1383.04,-236.43"/>
</g>
<!-- embeddings&#45;&gt;features -->
<g id="edge8" class="edge">
<title>embeddings&#45;&gt;features</title>
<path fill="none" stroke="#4c566a" stroke-width="1.2" d="M1160.02,-115.94C1212.85,-119.37 1278.91,-126.05 1336.71,-139.07 1352.82,-142.71 1369.54,-147.53 1385.79,-152.84"/>
<polygon fill="#4c566a" stroke="#4c566a" stroke-width="1.2" points="1384.57,-155.38 1393.04,-155.26 1386.34,-150.07 1384.57,-155.38"/>
<text text-anchor="middle" x="1261.75" y="-140.82" font-family="Helvetica,sans-Serif" font-size="10.00">semantic_sim</text>
</g>
<!-- filter -->
<g id="node9" class="node">
<title>filter</title>
<path fill="#fff0ec" stroke="#2f3a45" stroke-width="1.4" d="M1873.28,-228.02C1873.28,-228.02 1662.62,-228.02 1662.62,-228.02 1656.62,-228.02 1650.62,-222.02 1650.62,-216.02 1650.62,-216.02 1650.62,-174.62 1650.62,-174.62 1650.62,-168.62 1656.62,-162.62 1662.62,-162.62 1662.62,-162.62 1873.28,-162.62 1873.28,-162.62 1879.28,-162.62 1885.28,-168.62 1885.28,-174.62 1885.28,-174.62 1885.28,-216.02 1885.28,-216.02 1885.28,-222.02 1879.28,-228.02 1873.28,-228.02"/>
<text text-anchor="middle" x="1767.95" y="-209.42" font-family="Helvetica,sans-Serif" font-size="12.00">Policy Alignment Filter</text>
<text text-anchor="middle" x="1767.95" y="-196.67" font-family="Helvetica,sans-Serif" font-size="12.00">remove positive pairs with</text>
<text text-anchor="middle" x="1767.95" y="-183.92" font-family="Helvetica,sans-Serif" font-size="12.00">hard contradiction features</text>
<text text-anchor="middle" x="1767.95" y="-171.17" font-family="Helvetica,sans-Serif" font-size="12.00">write filtered_positive_contradictions.csv</text>
</g>
<!-- features&#45;&gt;filter -->
<g id="edge10" class="edge">
<title>features&#45;&gt;filter</title>
<path fill="none" stroke="#4c566a" stroke-width="1.2" d="M1596.05,-195.32C1610.57,-195.32 1625.64,-195.32 1640.56,-195.32"/>
<polygon fill="#4c566a" stroke="#4c566a" stroke-width="1.2" points="1640.52,-198.13 1648.52,-195.33 1640.52,-192.53 1640.52,-198.13"/>
</g>
<!-- splits -->
<g id="node10" class="node">
<title>splits</title>
<path fill="#f3efff" stroke="#2f3a45" stroke-width="1.4" d="M2085.69,-234.4C2085.69,-234.4 1952.28,-234.4 1952.28,-234.4 1946.28,-234.4 1940.28,-228.4 1940.28,-222.4 1940.28,-222.4 1940.28,-168.25 1940.28,-168.25 1940.28,-162.25 1946.28,-156.25 1952.28,-156.25 1952.28,-156.25 2085.69,-156.25 2085.69,-156.25 2091.69,-156.25 2097.69,-162.25 2097.69,-168.25 2097.69,-168.25 2097.69,-222.4 2097.69,-222.4 2097.69,-228.4 2091.69,-234.4 2085.69,-234.4"/>
<text text-anchor="middle" x="2018.98" y="-215.8" font-family="Helvetica,sans-Serif" font-size="12.00">4. Train / Calibrate / Test</text>
<text text-anchor="middle" x="2018.98" y="-203.05" font-family="Helvetica,sans-Serif" font-size="12.00">standard scaling</text>
<text text-anchor="middle" x="2018.98" y="-190.3" font-family="Helvetica,sans-Serif" font-size="12.00">logistic regression</text>
<text text-anchor="middle" x="2018.98" y="-177.55" font-family="Helvetica,sans-Serif" font-size="12.00">isotonic calibration</text>
<text text-anchor="middle" x="2018.98" y="-164.8" font-family="Helvetica,sans-Serif" font-size="12.00">fallback for small datasets</text>
</g>
<!-- filter&#45;&gt;splits -->
<g id="edge11" class="edge">
<title>filter&#45;&gt;splits</title>
<path fill="none" stroke="#4c566a" stroke-width="1.2" d="M1885.45,-195.32C1900.61,-195.32 1915.93,-195.32 1930.5,-195.32"/>
<polygon fill="#4c566a" stroke="#4c566a" stroke-width="1.2" points="1930.15,-198.13 1938.15,-195.33 1930.15,-192.53 1930.15,-198.13"/>
</g>
<!-- threshold -->
<g id="node11" class="node">
<title>threshold</title>
<path fill="#ffe8cc" stroke="#2f3a45" stroke-width="1.4" d="M2311.32,-183.38C2311.32,-183.38 2164.09,-135.07 2164.09,-135.07 2158.39,-133.2 2158.39,-129.45 2164.09,-127.58 2164.09,-127.58 2311.32,-79.27 2311.32,-79.27 2317.02,-77.4 2328.42,-77.4 2334.12,-79.27 2334.12,-79.27 2481.35,-127.58 2481.35,-127.58 2487.05,-129.45 2487.05,-133.2 2481.35,-135.07 2481.35,-135.07 2334.12,-183.38 2334.12,-183.38 2328.42,-185.25 2317.02,-185.25 2311.32,-183.38"/>
<text text-anchor="middle" x="2322.72" y="-151.8" font-family="Helvetica,sans-Serif" font-size="12.00">5. Threshold Selection</text>
<text text-anchor="middle" x="2322.72" y="-139.05" font-family="Helvetica,sans-Serif" font-size="12.00">precision&#45;constrained F1</text>
<text text-anchor="middle" x="2322.72" y="-126.3" font-family="Helvetica,sans-Serif" font-size="12.00">recall guard</text>
<text text-anchor="middle" x="2322.72" y="-113.55" font-family="Helvetica,sans-Serif" font-size="12.00">lower threshold wins ties</text>
<text text-anchor="middle" x="2322.72" y="-100.8" font-family="Helvetica,sans-Serif" font-size="12.00">record unmet floors explicitly</text>
</g>
<!-- splits&#45;&gt;threshold -->
<g id="edge12" class="edge">
<title>splits&#45;&gt;threshold</title>
<path fill="none" stroke="#4c566a" stroke-width="1.2" d="M2098.08,-178.76C2131.81,-171.61 2171.91,-163.1 2208.78,-155.28"/>
<polygon fill="#4c566a" stroke="#4c566a" stroke-width="1.2" points="2209.06,-158.08 2216.3,-153.68 2207.9,-152.61 2209.06,-158.08"/>
</g>
<!-- diagnostics -->
<g id="node12" class="node">
<title>diagnostics</title>
<path fill="#f7f7f7" stroke="#2f3a45" stroke-width="1.4" d="M2692.41,-263.77C2692.41,-263.77 2559.75,-263.77 2559.75,-263.77 2553.75,-263.77 2547.75,-257.77 2547.75,-251.77 2547.75,-251.77 2547.75,-184.88 2547.75,-184.88 2547.75,-178.88 2553.75,-172.88 2559.75,-172.88 2559.75,-172.88 2692.41,-172.88 2692.41,-172.88 2698.41,-172.88 2704.41,-178.88 2704.41,-184.88 2704.41,-184.88 2704.41,-251.77 2704.41,-251.77 2704.41,-257.77 2698.41,-263.77 2692.41,-263.77"/>
<text text-anchor="middle" x="2626.08" y="-245.17" font-family="Helvetica,sans-Serif" font-size="12.00">6. Diagnostics</text>
<text text-anchor="middle" x="2626.08" y="-232.42" font-family="Helvetica,sans-Serif" font-size="12.00">metrics.json</text>
<text text-anchor="middle" x="2626.08" y="-219.67" font-family="Helvetica,sans-Serif" font-size="12.00">threshold curves</text>
<text text-anchor="middle" x="2626.08" y="-206.92" font-family="Helvetica,sans-Serif" font-size="12.00">feature coefficients</text>
<text text-anchor="middle" x="2626.08" y="-194.17" font-family="Helvetica,sans-Serif" font-size="12.00">false positives / negatives</text>
<text text-anchor="middle" x="2626.08" y="-181.42" font-family="Helvetica,sans-Serif" font-size="12.00">top risky clusters</text>
</g>
<!-- splits&#45;&gt;diagnostics -->
<g id="edge14" class="edge">
<title>splits&#45;&gt;diagnostics</title>
<path fill="none" stroke="#4c566a" stroke-width="1.2" d="M2098.19,-201.81C2116.09,-203.13 2135.04,-204.4 2152.69,-205.32 2286.95,-212.39 2442.89,-215.74 2537.74,-217.23"/>
<polygon fill="#4c566a" stroke="#4c566a" stroke-width="1.2" points="2537.44,-220.03 2545.48,-217.35 2537.52,-214.43 2537.44,-220.03"/>
</g>
<!-- threshold&#45;&gt;diagnostics -->
<g id="edge13" class="edge">
<title>threshold&#45;&gt;diagnostics</title>
<path fill="none" stroke="#4c566a" stroke-width="1.2" d="M2414.14,-157.43C2453.46,-168.78 2499.34,-182.03 2538.25,-193.26"/>
<polygon fill="#4c566a" stroke="#4c566a" stroke-width="1.2" points="2537.26,-195.89 2545.73,-195.42 2538.82,-190.51 2537.26,-195.89"/>
</g>
<!-- bundle -->
<g id="node13" class="node">
<title>bundle</title>
<polygon fill="#e8f7ff" stroke="#2f3a45" stroke-width="1.4" points="2939.32,-158.03 2759.41,-158.03 2759.41,-154.03 2755.41,-154.03 2755.41,-150.03 2759.41,-150.03 2759.41,-100.62 2755.41,-100.62 2755.41,-96.62 2759.41,-96.62 2759.41,-92.62 2939.32,-92.62 2939.32,-158.03"/>
<polyline fill="none" stroke="#2f3a45" stroke-width="1.4" points="2759.41,-154.03 2763.41,-154.03 2763.41,-150.03 2759.41,-150.03"/>
<polyline fill="none" stroke="#2f3a45" stroke-width="1.4" points="2759.41,-100.62 2763.41,-100.62 2763.41,-96.62 2759.41,-96.62"/>
<text text-anchor="middle" x="2849.37" y="-139.42" font-family="Helvetica,sans-Serif" font-size="12.00">Final Model Bundle</text>
<text text-anchor="middle" x="2849.37" y="-126.67" font-family="Helvetica,sans-Serif" font-size="12.00">models/final_submission/</text>
<text text-anchor="middle" x="2849.37" y="-113.92" font-family="Helvetica,sans-Serif" font-size="12.00">cartsy_logreg.joblib</text>
<text text-anchor="middle" x="2849.37" y="-101.17" font-family="Helvetica,sans-Serif" font-size="12.00">metrics + compact diagnostics</text>
</g>
<!-- threshold&#45;&gt;bundle -->
<g id="edge16" class="edge">
<title>threshold&#45;&gt;bundle</title>
<path fill="none" stroke="#4c566a" stroke-width="1.2" d="M2488.28,-129.44C2573.99,-128.46 2675.94,-127.3 2749.44,-126.46"/>
<polygon fill="#4c566a" stroke="#4c566a" stroke-width="1.2" points="2749.39,-129.26 2757.35,-126.37 2749.32,-123.66 2749.39,-129.26"/>
<text text-anchor="middle" x="2626.08" y="-130.51" font-family="Helvetica,sans-Serif" font-size="10.00">saved threshold</text>
</g>
<!-- diagnostics&#45;&gt;bundle -->
<g id="edge15" class="edge">
<title>diagnostics&#45;&gt;bundle</title>
<path fill="none" stroke="#4c566a" stroke-width="1.2" d="M2704.79,-185.67C2722.88,-178.07 2742.25,-169.92 2760.74,-162.15"/>
<polygon fill="#4c566a" stroke="#4c566a" stroke-width="1.2" points="2761.76,-164.76 2768.05,-159.08 2759.59,-159.6 2761.76,-164.76"/>
</g>
<!-- runtime -->
<g id="node14" class="node">
<title>runtime</title>
<path fill="#edf1ff" stroke="#2f3a45" stroke-width="1.4" d="M3159.98,-152.03C3159.98,-152.03 3006.32,-152.03 3006.32,-152.03 3000.32,-152.03 2994.32,-146.03 2994.32,-140.03 2994.32,-140.03 2994.32,-98.62 2994.32,-98.62 2994.32,-92.62 3000.32,-86.62 3006.32,-86.62 3006.32,-86.62 3159.98,-86.62 3159.98,-86.62 3165.98,-86.62 3171.98,-92.62 3171.98,-98.62 3171.98,-98.62 3171.98,-140.03 3171.98,-140.03 3171.98,-146.03 3165.98,-152.03 3159.98,-152.03"/>
<text text-anchor="middle" x="3083.15" y="-133.42" font-family="Helvetica,sans-Serif" font-size="12.00">Runtime Dedupe Pipeline</text>
<text text-anchor="middle" x="3083.15" y="-120.67" font-family="Helvetica,sans-Serif" font-size="12.00">load bundle</text>
<text text-anchor="middle" x="3083.15" y="-107.92" font-family="Helvetica,sans-Serif" font-size="12.00">validate feature columns</text>
<text text-anchor="middle" x="3083.15" y="-95.17" font-family="Helvetica,sans-Serif" font-size="12.00">produce ml_score + threshold</text>
</g>
<!-- bundle&#45;&gt;runtime -->
<g id="edge17" class="edge">
<title>bundle&#45;&gt;runtime</title>
<path fill="none" stroke="#4c566a" stroke-width="1.2" d="M2939.65,-123.01C2954.3,-122.63 2969.54,-122.24 2984.38,-121.86"/>
<polygon fill="#4c566a" stroke="#4c566a" stroke-width="1.2" points="2984.32,-124.66 2992.25,-121.65 2984.18,-119.06 2984.32,-124.66"/>
</g>
<!-- runtime&#45;&gt;eval -->
<g id="edge18" class="edge">
<title>runtime&#45;&gt;eval</title>
<path fill="none" stroke="#4c566a" stroke-width="1.2" d="M3172.39,-91.61C3187.19,-86.96 3202.73,-82.07 3218.07,-77.25"/>
<polygon fill="#4c566a" stroke="#4c566a" stroke-width="1.2" points="3218.55,-80.04 3225.34,-74.97 3216.87,-74.7 3218.55,-80.04"/>
</g>
</g>
</svg>
