<?xml version="1.0" encoding="UTF-8" standalone="no"?>
<!DOCTYPE svg PUBLIC "-//W3C//DTD SVG 1.1//EN"
 "http://www.w3.org/Graphics/SVG/1.1/DTD/svg11.dtd">
<!-- Generated by graphviz version 12.2.1 (20241206.2353)
 -->
<!-- Title: TrainingPipeline Pages: 1 -->
<svg width="3488pt" height="386pt"
 viewBox="0.00 0.00 3487.93 385.55" xmlns="http://www.w3.org/2000/svg" xmlns:xlink="http://www.w3.org/1999/xlink">
<g id="graph0" class="graph" transform="scale(1 1) rotate(0) translate(25.2 360.35)">
<title>TrainingPipeline</title>
<polygon fill="white" stroke="none" points="-25.2,25.2 -25.2,-360.35 3462.73,-360.35 3462.73,25.2 -25.2,25.2"/>
<text text-anchor="start" x="1459.64" y="-309.35" font-family="Helvetica,sans-Serif" font-weight="bold" font-size="24.00">Cartsy Supervised Pairwise Training Pipeline</text>
<!-- products -->
<g id="node1" class="node">
<title>products</title>
<path fill="#eaf2ff" stroke="#2f3a45" stroke-width="1.4" d="M116.16,-130.4C116.16,-130.4 39.75,-130.4 39.75,-130.4 33.75,-130.4 27.75,-124.4 27.75,-118.4 27.75,-118.4 27.75,-104 27.75,-104 27.75,-98 33.75,-92 39.75,-92 39.75,-92 116.16,-92 116.16,-92 122.16,-92 128.16,-98 128.16,-104 128.16,-104 128.16,-118.4 128.16,-118.4 128.16,-124.4 122.16,-130.4 116.16,-130.4"/>
<text text-anchor="start" x="37.83" y="-112.8" font-family="Helvetica,sans-Serif" font-weight="bold" font-size="12.00">Raw Products</text>
<text text-anchor="start" x="44.58" y="-100.8" font-family="Helvetica,sans-Serif" font-size="12.00">products.csv</text>
</g>
<!-- augment -->
<g id="node3" class="node">
<title>augment</title>
<path fill="#eef7ed" stroke="#2f3a45" stroke-width="1.4" d="M375.07,-148.4C375.07,-148.4 222.91,-148.4 222.91,-148.4 216.91,-148.4 210.91,-142.4 210.91,-136.4 210.91,-136.4 210.91,-86 210.91,-86 210.91,-80 216.91,-74 222.91,-74 222.91,-74 375.07,-74 375.07,-74 381.07,-74 387.07,-80 387.07,-86 387.07,-86 387.07,-136.4 387.07,-136.4 387.07,-142.4 381.07,-148.4 375.07,-148.4"/>
<text text-anchor="start" x="220.99" y="-130.8" font-family="Helvetica,sans-Serif" font-weight="bold" font-size="12.00">1. Controlled Augmentation</text>
<text text-anchor="start" x="224.74" y="-118.8" font-family="Helvetica,sans-Serif" font-size="12.00">positive duplicates preserve</text>
<text text-anchor="start" x="251.74" y="-106.8" font-family="Helvetica,sans-Serif" font-size="12.00">variant signatures</text>
<text text-anchor="start" x="243.86" y="-94.8" font-family="Helvetica,sans-Serif" font-size="12.00">hard negatives inject</text>
<text text-anchor="start" x="226.24" y="-82.8" font-family="Helvetica,sans-Serif" font-size="12.00">weak shared IDs + conflicts</text>
</g>
<!-- products&#45;&gt;augment -->
<g id="edge1" class="edge">
<title>products&#45;&gt;augment</title>
<path fill="none" stroke="#4c566a" stroke-width="1.2" d="M128.66,-111.2C150.15,-111.2 176.07,-111.2 201.1,-111.2"/>
<polygon fill="#4c566a" stroke="#4c566a" stroke-width="1.2" points="200.82,-114 208.82,-111.2 200.82,-108.4 200.82,-114"/>
</g>
<!-- labels -->
<g id="node2" class="node">
<title>labels</title>
<path fill="#eaf2ff" stroke="#2f3a45" stroke-width="1.4" d="M143.91,-50.4C143.91,-50.4 12,-50.4 12,-50.4 6,-50.4 0,-44.4 0,-38.4 0,-38.4 0,-12 0,-12 0,-6 6,0 12,0 12,0 143.91,0 143.91,0 149.91,0 155.91,-6 155.91,-12 155.91,-12 155.91,-38.4 155.91,-38.4 155.91,-44.4 149.91,-50.4 143.91,-50.4"/>
<text text-anchor="start" x="19.08" y="-32.8" font-family="Helvetica,sans-Serif" font-weight="bold" font-size="12.00">Ground Truth Labels</text>
<text text-anchor="start" x="10.08" y="-20.8" font-family="Helvetica,sans-Serif" font-size="12.00">ground_truth_merged.csv</text>
<text text-anchor="start" x="11.58" y="-8.8" font-family="Helvetica,sans-Serif" font-size="12.00">source_id &#45;&gt; deduped_id</text>
</g>
<!-- labels&#45;&gt;augment -->
<g id="edge2" class="edge">
<title>labels&#45;&gt;augment</title>
<path fill="none" stroke="#4c566a" stroke-width="1.2" d="M144.38,-50.89C162.33,-57.94 182.19,-65.73 201.49,-73.31"/>
<polygon fill="#4c566a" stroke="#4c566a" stroke-width="1.2" points="200.46,-75.91 208.93,-76.23 202.5,-70.7 200.46,-75.91"/>
</g>
<!-- eval -->
<g id="node15" class="node">
<title>eval</title>
<path fill="#f0f8ff" stroke="#2f3a45" stroke-width="1.4" d="M3425.53,-71.4C3425.53,-71.4 3236.62,-71.4 3236.62,-71.4 3230.62,-71.4 3224.62,-65.4 3224.62,-59.4 3224.62,-59.4 3224.62,-21 3224.62,-21 3224.62,-15 3230.62,-9 3236.62,-9 3236.62,-9 3425.53,-9 3425.53,-9 3431.53,-9 3437.53,-15 3437.53,-21 3437.53,-21 3437.53,-59.4 3437.53,-59.4 3437.53,-65.4 3431.53,-71.4 3425.53,-71.4"/>
<text text-anchor="start" x="3272.2" y="-53.8" font-family="Helvetica,sans-Serif" font-weight="bold" font-size="12.00">Post&#45;Run Evaluation</text>
<text text-anchor="start" x="3238.08" y="-41.8" font-family="Helvetica,sans-Serif" font-size="12.00">evaluate&#45;run on completed artifacts</text>
<text text-anchor="start" x="3281.95" y="-29.8" font-family="Helvetica,sans-Serif" font-size="12.00">precision/recall/F1</text>
<text text-anchor="start" x="3234.7" y="-17.8" font-family="Helvetica,sans-Serif" font-size="12.00">vector&#45;only and generic&#45;brand slices</text>
</g>
<!-- labels&#45;&gt;eval -->
<g id="edge19" class="edge">
<title>labels&#45;&gt;eval</title>
<path fill="none" stroke="#4c566a" stroke-width="1.2" stroke-dasharray="5,2" d="M156.23,-22.05C198.17,-20.6 250.91,-19.2 297.99,-19.2 297.99,-19.2 297.99,-19.2 3081.79,-19.2 3125.24,-19.2 3172.8,-22.43 3214.57,-26.36"/>
<polygon fill="#4c566a" stroke="#4c566a" stroke-width="1.2" points="3214.19,-29.14 3222.42,-27.11 3214.72,-23.56 3214.19,-29.14"/>
<text text-anchor="middle" x="1779.95" y="-20.95" font-family="Helvetica,sans-Serif" font-size="10.00">acceptance labels</text>
</g>
<!-- augmented -->
<g id="node4" class="node">
<title>augmented</title>
<path fill="#eef7ed" stroke="#2f3a45" stroke-width="1.4" d="M652.73,-142.4C652.73,-142.4 454.07,-142.4 454.07,-142.4 448.07,-142.4 442.07,-136.4 442.07,-130.4 442.07,-130.4 442.07,-92 442.07,-92 442.07,-86 448.07,-80 454.07,-80 454.07,-80 652.73,-80 652.73,-80 658.73,-80 664.73,-86 664.73,-92 664.73,-92 664.73,-130.4 664.73,-130.4 664.73,-136.4 658.73,-142.4 652.73,-142.4"/>
<text text-anchor="start" x="480.27" y="-124.8" font-family="Helvetica,sans-Serif" font-weight="bold" font-size="12.00">Augmented Training Files</text>
<text text-anchor="start" x="466.4" y="-112.8" font-family="Helvetica,sans-Serif" font-size="12.00">dataset_merged_augmented.csv</text>
<text text-anchor="start" x="452.15" y="-100.8" font-family="Helvetica,sans-Serif" font-size="12.00">ground_truth_merged_augmented.csv</text>
<text text-anchor="start" x="457.02" y="-88.8" font-family="Helvetica,sans-Serif" font-size="12.00">augmentation_manifest_merged.csv</text>
</g>
<!-- augment&#45;&gt;augmented -->
<g id="edge3" class="edge">
<title>augment&#45;&gt;augmented</title>
<path fill="none" stroke="#4c566a" stroke-width="1.2" d="M387.56,-111.2C402.07,-111.2 417.32,-111.2 432.46,-111.2"/>
<polygon fill="#4c566a" stroke="#4c566a" stroke-width="1.2" points="432.04,-114 440.04,-111.2 432.04,-108.4 432.04,-114"/>
</g>
<!-- pair_build -->
<g id="node5" class="node">
<title>pair_build</title>
<path fill="#fff4df" stroke="#2f3a45" stroke-width="1.4" d="M931.14,-227.4C931.14,-227.4 731.73,-227.4 731.73,-227.4 725.73,-227.4 719.73,-221.4 719.73,-215.4 719.73,-215.4 719.73,-177 719.73,-177 719.73,-171 725.73,-165 731.73,-165 731.73,-165 931.14,-165 931.14,-165 937.14,-165 943.14,-171 943.14,-177 943.14,-177 943.14,-215.4 943.14,-215.4 943.14,-221.4 937.14,-227.4 931.14,-227.4"/>
<text text-anchor="start" x="769.56" y="-209.8" font-family="Helvetica,sans-Serif" font-weight="bold" font-size="12.00">2. Build Labeled Pairs</text>
<text text-anchor="start" x="761.31" y="-197.8" font-family="Helvetica,sans-Serif" font-size="12.00">positive same deduped_id</text>
<text text-anchor="start" x="729.81" y="-185.8" font-family="Helvetica,sans-Serif" font-size="12.00">hard negatives from IDs/brand/random</text>
<text text-anchor="start" x="758.31" y="-173.8" font-family="Helvetica,sans-Serif" font-size="12.00">caps keep training tractable</text>
</g>
<!-- augmented&#45;&gt;pair_build -->
<g id="edge4" class="edge">
<title>augmented&#45;&gt;pair_build</title>
<path fill="none" stroke="#4c566a" stroke-width="1.2" d="M657.19,-142.85C677.12,-148.99 698.11,-155.45 718.33,-161.68"/>
<polygon fill="#4c566a" stroke="#4c566a" stroke-width="1.2" points="717.36,-164.31 725.83,-163.99 719.01,-158.96 717.36,-164.31"/>
</g>
<!-- embeddings -->
<g id="node7" class="node">
<title>embeddings</title>
<path fill="#fceff5" stroke="#2f3a45" stroke-width="1.4" d="M1155.3,-141.4C1155.3,-141.4 982.14,-141.4 982.14,-141.4 976.14,-141.4 970.14,-135.4 970.14,-129.4 970.14,-129.4 970.14,-91 970.14,-91 970.14,-85 976.14,-79 982.14,-79 982.14,-79 1155.3,-79 1155.3,-79 1161.3,-79 1167.3,-85 1167.3,-91 1167.3,-91 1167.3,-129.4 1167.3,-129.4 1167.3,-135.4 1161.3,-141.4 1155.3,-141.4"/>
<text text-anchor="start" x="1006.84" y="-123.8" font-family="Helvetica,sans-Serif" font-weight="bold" font-size="12.00">Optional Embeddings</text>
<text text-anchor="start" x="1020.34" y="-111.8" font-family="Helvetica,sans-Serif" font-size="12.00">&#45;&#45;use&#45;embeddings</text>
<text text-anchor="start" x="980.22" y="-99.8" font-family="Helvetica,sans-Serif" font-size="12.00">reuse product embedding caches</text>
<text text-anchor="start" x="1007.59" y="-87.8" font-family="Helvetica,sans-Serif" font-size="12.00">compute semantic_sim</text>
</g>
<!-- augmented&#45;&gt;embeddings -->
<g id="edge7" class="edge">
<title>augmented&#45;&gt;embeddings</title>
<path fill="none" stroke="#4c566a" stroke-width="1.2" d="M665.15,-110.98C752.51,-110.81 873.63,-110.58 960.15,-110.41"/>
<polygon fill="#4c566a" stroke="#4c566a" stroke-width="1.2" points="959.92,-113.21 967.91,-110.39 959.91,-107.61 959.92,-113.21"/>
</g>
<!-- block_keys -->
<g id="node6" class="node">
<title>block_keys</title>
<path fill="#fff9e8" stroke="#2f3a45" stroke-width="1.4" d="M1336.71,-302.4C1336.71,-302.4 1206.3,-302.4 1206.3,-302.4 1200.3,-302.4 1194.3,-296.4 1194.3,-290.4 1194.3,-290.4 1194.3,-252 1194.3,-252 1194.3,-246 1200.3,-240 1206.3,-240 1206.3,-240 1336.71,-240 1336.71,-240 1342.71,-240 1348.71,-246 1348.71,-252 1348.71,-252 1348.71,-290.4 1348.71,-290.4 1348.71,-296.4 1342.71,-302.4 1336.71,-302.4"/>
<text text-anchor="start" x="1204.38" y="-284.8" font-family="Helvetica,sans-Serif" font-weight="bold" font-size="12.00">Retrieval&#45;Like Evidence</text>
<text text-anchor="start" x="1229.88" y="-272.8" font-family="Helvetica,sans-Serif" font-size="12.00">exact identifiers</text>
<text text-anchor="start" x="1213" y="-260.8" font-family="Helvetica,sans-Serif" font-size="12.00">FTS/trigram estimates</text>
<text text-anchor="start" x="1206.63" y="-248.8" font-family="Helvetica,sans-Serif" font-size="12.00">vector cosine block keys</text>
</g>
<!-- pair_build&#45;&gt;block_keys -->
<g id="edge5" class="edge">
<title>pair_build&#45;&gt;block_keys</title>
<path fill="none" stroke="#4c566a" stroke-width="1.2" d="M943.27,-216.47C952.36,-218.08 961.4,-219.68 970.14,-221.2 1042.32,-233.76 1124.37,-247.37 1184.46,-257.22"/>
<polygon fill="#4c566a" stroke="#4c566a" stroke-width="1.2" points="1183.77,-259.94 1192.12,-258.47 1184.68,-254.42 1183.77,-259.94"/>
</g>
<!-- features -->
<g id="node8" class="node">
<title>features</title>
<path fill="#edf7f7" stroke="#2f3a45" stroke-width="1.4" d="M1595.62,-230.4C1595.62,-230.4 1415.71,-230.4 1415.71,-230.4 1409.71,-230.4 1403.71,-224.4 1403.71,-218.4 1403.71,-218.4 1403.71,-168 1403.71,-168 1403.71,-162 1409.71,-156 1415.71,-156 1415.71,-156 1595.62,-156 1595.62,-156 1601.62,-156 1607.62,-162 1607.62,-168 1607.62,-168 1607.62,-218.4 1607.62,-218.4 1607.62,-224.4 1601.62,-230.4 1595.62,-230.4"/>
<text text-anchor="start" x="1444.54" y="-212.8" font-family="Helvetica,sans-Serif" font-weight="bold" font-size="12.00">3. Feature Generation</text>
<text text-anchor="start" x="1413.79" y="-200.8" font-family="Helvetica,sans-Serif" font-size="12.00">DEFAULT_FEATURE_COLUMNS</text>
<text text-anchor="start" x="1434.04" y="-188.8" font-family="Helvetica,sans-Serif" font-size="12.00">identifier, lexical, semantic,</text>
<text text-anchor="start" x="1451.29" y="-176.8" font-family="Helvetica,sans-Serif" font-size="12.00">size/pack/price, rule,</text>
<text text-anchor="start" x="1428.41" y="-164.8" font-family="Helvetica,sans-Serif" font-size="12.00">variant/kit/form contradictions</text>
</g>
<!-- pair_build&#45;&gt;features -->
<g id="edge9" class="edge">
<title>pair_build&#45;&gt;features</title>
<path fill="none" stroke="#4c566a" stroke-width="1.2" d="M943.44,-195.7C1068.1,-195.15 1269.22,-194.25 1393.82,-193.69"/>
<polygon fill="#4c566a" stroke="#4c566a" stroke-width="1.2" points="1393.6,-196.5 1401.58,-193.66 1393.57,-190.9 1393.6,-196.5"/>
<text text-anchor="middle" x="1271.5" y="-196.33" font-family="Helvetica,sans-Serif" font-size="10.00">pair labels</text>
</g>
<!-- block_keys&#45;&gt;features -->
<g id="edge6" class="edge">
<title>block_keys&#45;&gt;features</title>
<path fill="none" stroke="#4c566a" stroke-width="1.2" d="M1349.17,-245.44C1363.63,-240.58 1379.02,-235.41 1394.28,-230.29"/>
<polygon fill="#4c566a" stroke="#4c566a" stroke-width="1.2" points="1394.83,-233.06 1401.52,-227.86 1393.04,-227.75 1394.83,-233.06"/>
</g>
<!-- embeddings&#45;&gt;features -->
<g id="edge8" class="edge">
<title>embeddings&#45;&gt;features</title>
<path fill="none" stroke="#4c566a" stroke-width="1.2" d="M1167.5,-113.58C1221.46,-116.93 1289.37,-123.62 1348.71,-136.95 1366.53,-140.95 1385.09,-146.42 1402.94,-152.39"/>
<polygon fill="#4c566a" stroke="#4c566a" stroke-width="1.2" points="1402,-155.03 1410.48,-154.97 1403.81,-149.73 1402,-155.03"/>
<text text-anchor="middle" x="1271.5" y="-138.7" font-family="Helvetica,sans-Serif" font-size="10.00">semantic_sim</text>
</g>
<!-- filter -->
<g id="node9" class="node">
<title>filter</title>
<path fill="#fff0ec" stroke="#2f3a45" stroke-width="1.4" d="M1885.28,-224.4C1885.28,-224.4 1674.62,-224.4 1674.62,-224.4 1668.62,-224.4 1662.62,-218.4 1662.62,-212.4 1662.62,-212.4 1662.62,-174 1662.62,-174 1662.62,-168 1668.62,-162 1674.62,-162 1674.62,-162 1885.28,-162 1885.28,-162 1891.28,-162 1897.28,-168 1897.28,-174 1897.28,-174 1897.28,-212.4 1897.28,-212.4 1897.28,-218.4 1891.28,-224.4 1885.28,-224.4"/>
<text text-anchor="start" x="1716.2" y="-206.8" font-family="Helvetica,sans-Serif" font-weight="bold" font-size="12.00">Policy Alignment Filter</text>
<text text-anchor="start" x="1710.95" y="-194.8" font-family="Helvetica,sans-Serif" font-size="12.00">remove positive pairs with</text>
<text text-anchor="start" x="1709.45" y="-182.8" font-family="Helvetica,sans-Serif" font-size="12.00">hard contradiction features</text>
<text text-anchor="start" x="1672.7" y="-170.8" font-family="Helvetica,sans-Serif" font-size="12.00">write filtered_positive_contradictions.csv</text>
</g>
<!-- features&#45;&gt;filter -->
<g id="edge10" class="edge">
<title>features&#45;&gt;filter</title>
<path fill="none" stroke="#4c566a" stroke-width="1.2" d="M1608.05,-193.2C1622.57,-193.2 1637.64,-193.2 1652.56,-193.2"/>
<polygon fill="#4c566a" stroke="#4c566a" stroke-width="1.2" points="1652.52,-196 1660.52,-193.2 1652.52,-190.4 1652.52,-196"/>
</g>
<!-- splits -->
<g id="node10" class="node">
<title>splits</title>
<path fill="#f3efff" stroke="#2f3a45" stroke-width="1.4" d="M2097.69,-230.4C2097.69,-230.4 1964.28,-230.4 1964.28,-230.4 1958.28,-230.4 1952.28,-224.4 1952.28,-218.4 1952.28,-218.4 1952.28,-168 1952.28,-168 1952.28,-162 1958.28,-156 1964.28,-156 1964.28,-156 2097.69,-156 2097.69,-156 2103.69,-156 2109.69,-162 2109.69,-168 2109.69,-168 2109.69,-218.4 2109.69,-218.4 2109.69,-224.4 2103.69,-230.4 2097.69,-230.4"/>
<text text-anchor="start" x="1964.23" y="-212.8" font-family="Helvetica,sans-Serif" font-weight="bold" font-size="12.00">4. Train / Calibrate / Test</text>
<text text-anchor="start" x="1987.11" y="-200.8" font-family="Helvetica,sans-Serif" font-size="12.00">standard scaling</text>
<text text-anchor="start" x="1982.61" y="-188.8" font-family="Helvetica,sans-Serif" font-size="12.00">logistic regression</text>
<text text-anchor="start" x="1981.11" y="-176.8" font-family="Helvetica,sans-Serif" font-size="12.00">isotonic calibration</text>
<text text-anchor="start" x="1962.36" y="-164.8" font-family="Helvetica,sans-Serif" font-size="12.00">fallback for small datasets</text>
</g>
<!-- filter&#45;&gt;splits -->
<g id="edge11" class="edge">
<title>filter&#45;&gt;splits</title>
<path fill="none" stroke="#4c566a" stroke-width="1.2" d="M1897.45,-193.2C1912.61,-193.2 1927.93,-193.2 1942.5,-193.2"/>
<polygon fill="#4c566a" stroke="#4c566a" stroke-width="1.2" points="1942.15,-196 1950.15,-193.2 1942.15,-190.4 1942.15,-196"/>
</g>
<!-- threshold -->
<g id="node11" class="node">
<title>threshold</title>
<path fill="#ffe8cc" stroke="#2f3a45" stroke-width="1.4" d="M2316.19,-182.11C2316.19,-182.11 2176.04,-134.09 2176.04,-134.09 2170.37,-132.14 2170.37,-128.26 2176.04,-126.31 2176.04,-126.31 2316.19,-78.29 2316.19,-78.29 2321.86,-76.34 2333.22,-76.34 2338.89,-78.29 2338.89,-78.29 2479.04,-126.31 2479.04,-126.31 2484.72,-128.26 2484.72,-132.14 2479.04,-134.09 2479.04,-134.09 2338.89,-182.11 2338.89,-182.11 2333.22,-184.06 2321.86,-184.06 2316.19,-182.11"/>
<text text-anchor="start" x="2263.79" y="-149.8" font-family="Helvetica,sans-Serif" font-weight="bold" font-size="12.00">5. Threshold Selection</text>
<text text-anchor="start" x="2261.54" y="-137.8" font-family="Helvetica,sans-Serif" font-size="12.00">precision&#45;constrained F1</text>
<text text-anchor="start" x="2296.04" y="-125.8" font-family="Helvetica,sans-Serif" font-size="12.00">recall guard</text>
<text text-anchor="start" x="2261.92" y="-113.8" font-family="Helvetica,sans-Serif" font-size="12.00">lower threshold wins ties</text>
<text text-anchor="start" x="2251.79" y="-101.8" font-family="Helvetica,sans-Serif" font-size="12.00">record unmet floors explicitly</text>
</g>
<!-- splits&#45;&gt;threshold -->
<g id="edge12" class="edge">
<title>splits&#45;&gt;threshold</title>
<path fill="none" stroke="#4c566a" stroke-width="1.2" d="M2110.15,-176.48C2142.77,-169.51 2181.24,-161.28 2216.63,-153.71"/>
<polygon fill="#4c566a" stroke="#4c566a" stroke-width="1.2" points="2217.02,-156.49 2224.26,-152.08 2215.85,-151.01 2217.02,-156.49"/>
</g>
<!-- diagnostics -->
<g id="node12" class="node">
<title>diagnostics</title>
<path fill="#f7f7f7" stroke="#2f3a45" stroke-width="1.4" d="M2690.05,-257.4C2690.05,-257.4 2557.39,-257.4 2557.39,-257.4 2551.39,-257.4 2545.39,-251.4 2545.39,-245.4 2545.39,-245.4 2545.39,-183 2545.39,-183 2545.39,-177 2551.39,-171 2557.39,-171 2557.39,-171 2690.05,-171 2690.05,-171 2696.05,-171 2702.05,-177 2702.05,-183 2702.05,-183 2702.05,-245.4 2702.05,-245.4 2702.05,-251.4 2696.05,-257.4 2690.05,-257.4"/>
<text text-anchor="start" x="2583.22" y="-239.8" font-family="Helvetica,sans-Serif" font-weight="bold" font-size="12.00">6. Diagnostics</text>
<text text-anchor="start" x="2591.85" y="-227.8" font-family="Helvetica,sans-Serif" font-size="12.00">metrics.json</text>
<text text-anchor="start" x="2579.85" y="-215.8" font-family="Helvetica,sans-Serif" font-size="12.00">threshold curves</text>
<text text-anchor="start" x="2573.85" y="-203.8" font-family="Helvetica,sans-Serif" font-size="12.00">feature coefficients</text>
<text text-anchor="start" x="2555.47" y="-191.8" font-family="Helvetica,sans-Serif" font-size="12.00">false positives / negatives</text>
<text text-anchor="start" x="2579.47" y="-179.8" font-family="Helvetica,sans-Serif" font-size="12.00">top risky clusters</text>
</g>
<!-- splits&#45;&gt;diagnostics -->
<g id="edge14" class="edge">
<title>splits&#45;&gt;diagnostics</title>
<path fill="none" stroke="#4c566a" stroke-width="1.2" d="M2110.17,-200.47C2128.07,-201.91 2147.03,-203.27 2164.69,-204.2 2293.76,-211.01 2443.52,-213.2 2535.71,-213.9"/>
<polygon fill="#4c566a" stroke="#4c566a" stroke-width="1.2" points="2535.44,-216.69 2543.46,-213.95 2535.48,-211.09 2535.44,-216.69"/>
</g>
<!-- threshold&#45;&gt;diagnostics -->
<g id="edge13" class="edge">
<title>threshold&#45;&gt;diagnostics</title>
<path fill="none" stroke="#4c566a" stroke-width="1.2" d="M2417.6,-155.63C2455.02,-166.31 2498.4,-178.7 2535.61,-189.32"/>
<polygon fill="#4c566a" stroke="#4c566a" stroke-width="1.2" points="2534.72,-191.98 2543.18,-191.49 2536.25,-186.6 2534.72,-191.98"/>
</g>
<!-- bundle -->
<g id="node13" class="node">
<title>bundle</title>
<polygon fill="#e8f7ff" stroke="#2f3a45" stroke-width="1.4" points="2936.96,-155.4 2757.05,-155.4 2757.05,-151.4 2753.05,-151.4 2753.05,-147.4 2757.05,-147.4 2757.05,-101 2753.05,-101 2753.05,-97 2757.05,-97 2757.05,-93 2936.96,-93 2936.96,-155.4"/>
<polyline fill="none" stroke="#2f3a45" stroke-width="1.4" points="2757.05,-151.4 2761.05,-151.4 2761.05,-147.4 2757.05,-147.4"/>
<polyline fill="none" stroke="#2f3a45" stroke-width="1.4" points="2757.05,-101 2761.05,-101 2761.05,-97 2757.05,-97"/>
<text text-anchor="start" x="2792.26" y="-137.8" font-family="Helvetica,sans-Serif" font-weight="bold" font-size="12.00">Final Model Bundle</text>
<text text-anchor="start" x="2779.51" y="-125.8" font-family="Helvetica,sans-Serif" font-size="12.00">models/final_submission/</text>
<text text-anchor="start" x="2794.88" y="-113.8" font-family="Helvetica,sans-Serif" font-size="12.00">cartsy_logreg.joblib</text>
<text text-anchor="start" x="2767.13" y="-101.8" font-family="Helvetica,sans-Serif" font-size="12.00">metrics + compact diagnostics</text>
</g>
<!-- threshold&#45;&gt;bundle -->
<g id="edge16" class="edge">
<title>threshold&#45;&gt;bundle</title>
<path fill="none" stroke="#4c566a" stroke-width="1.2" d="M2486.26,-128.37C2571.18,-127.39 2673.34,-126.2 2747.05,-125.35"/>
<polygon fill="#4c566a" stroke="#4c566a" stroke-width="1.2" points="2747.02,-128.15 2754.99,-125.26 2746.96,-122.55 2747.02,-128.15"/>
<text text-anchor="middle" x="2623.72" y="-129.44" font-family="Helvetica,sans-Serif" font-size="10.00">saved threshold</text>
</g>
<!-- diagnostics&#45;&gt;bundle -->
<g id="edge15" class="edge">
<title>diagnostics&#45;&gt;bundle</title>
<path fill="none" stroke="#4c566a" stroke-width="1.2" d="M2702.43,-182.6C2720.73,-175.15 2740.35,-167.17 2759.03,-159.57"/>
<polygon fill="#4c566a" stroke="#4c566a" stroke-width="1.2" points="2760.08,-162.17 2766.43,-156.56 2757.97,-156.98 2760.08,-162.17"/>
</g>
<!-- runtime -->
<g id="node14" class="node">
<title>runtime</title>
<path fill="#edf1ff" stroke="#2f3a45" stroke-width="1.4" d="M3157.62,-148.4C3157.62,-148.4 3003.96,-148.4 3003.96,-148.4 2997.96,-148.4 2991.96,-142.4 2991.96,-136.4 2991.96,-136.4 2991.96,-98 2991.96,-98 2991.96,-92 2997.96,-86 3003.96,-86 3003.96,-86 3157.62,-86 3157.62,-86 3163.62,-86 3169.62,-92 3169.62,-98 3169.62,-98 3169.62,-136.4 3169.62,-136.4 3169.62,-142.4 3163.62,-148.4 3157.62,-148.4"/>
<text text-anchor="start" x="3008.42" y="-130.8" font-family="Helvetica,sans-Serif" font-weight="bold" font-size="12.00">Runtime Dedupe Pipeline</text>
<text text-anchor="start" x="3049.29" y="-118.8" font-family="Helvetica,sans-Serif" font-size="12.00">load bundle</text>
<text text-anchor="start" x="3015.92" y="-106.8" font-family="Helvetica,sans-Serif" font-size="12.00">validate feature columns</text>
<text text-anchor="start" x="3002.04" y="-94.8" font-family="Helvetica,sans-Serif" font-size="12.00">produce ml_score + threshold</text>
</g>
<!-- bundle&#45;&gt;runtime -->
<g id="edge17" class="edge">
<title>bundle&#45;&gt;runtime</title>
<path fill="none" stroke="#4c566a" stroke-width="1.2" d="M2937.29,-121.5C2951.94,-121.06 2967.18,-120.6 2982.02,-120.15"/>
<polygon fill="#4c566a" stroke="#4c566a" stroke-width="1.2" points="2981.97,-122.96 2989.89,-119.92 2981.81,-117.36 2981.97,-122.96"/>
</g>
<!-- runtime&#45;&gt;eval -->
<g id="edge18" class="edge">
<title>runtime&#45;&gt;eval</title>
<path fill="none" stroke="#4c566a" stroke-width="1.2" d="M3170.03,-89.84C3185.9,-84.91 3202.64,-79.72 3219.06,-74.63"/>
<polygon fill="#4c566a" stroke="#4c566a" stroke-width="1.2" points="3219.6,-77.39 3226.41,-72.35 3217.94,-72.04 3219.6,-77.39"/>
</g>
</g>
</svg>
